<?xml version="1.0" encoding="utf-8"?>
<!-- Generator: Adobe Illustrator 22.1.0, SVG Export Plug-In . SVG Version: 6.00 Build 0)  -->
<svg version="1.1" id="Layer_1" xmlns="http://www.w3.org/2000/svg" xmlns:xlink="http://www.w3.org/1999/xlink" x="0px" y="0px"
	 viewBox="0 0 700 700" style="enable-background:new 0 0 700 700;" xml:space="preserve">
<style type="text/css">
	.st0{clip-path:url(#SVGID_2_);}
	.st1{fill:#FFFFFF;}
	.st2{fill:#FFFFFF;stroke:#000000;}
	.st3{fill:none;stroke:#000000;stroke-width:5;}
	.st4{fill:#FFFFFF;stroke:#000000;stroke-width:5;}
</style>
<g>
	<defs>
		<rect id="SVGID_1_" width="700" height="700"/>
	</defs>
	<clipPath id="SVGID_2_">
		<use xlink:href="#SVGID_1_"  style="overflow:visible;"/>
	</clipPath>
	<g id="Web_1920_1" class="st0">
		<rect class="st1" width="700" height="700"/>
		<g id="Group_2" transform="translate(72 51)">
			<g id="Group_1" transform="translate(132 196)">
				<g id="Path_1" transform="translate(0)">
					<path class="st2" d="M290.5,205.9H-1.5V0.5h291.9V205.9z"/>
					<path class="st2" d="M1.1,3.1v200.3h286.8V3.1H1.1 M-4-2h297v210.4H-4V-2z"/>
				</g>
				<g id="bottom_line" transform="translate(7.513 154.407)">
					<g id="Rectangle_2">
						<rect x="0" y="0" class="st1" width="27.4" height="45.1"/>
						<rect x="2.5" y="2.5" class="st3" width="22.4" height="40.1"/>
					</g>
					<g id="Rectangle_3" transform="translate(36.489)">
						<rect x="0" y="0" class="st1" width="27.4" height="45.1"/>
						<rect x="2.5" y="2.5" class="st3" width="22.4" height="40.1"/>
					</g>
					<g id="Rectangle_4" transform="translate(70.597)">
						<rect x="0" y="0" class="st1" width="27.4" height="45.1"/>
						<rect x="2.5" y="2.5" class="st3" width="22.4" height="40.1"/>
					</g>
					<g id="Rectangle_5" transform="translate(105.896)">
						<rect x="0" y="0" class="st1" width="27.4" height="45.1"/>
						<rect x="2.5" y="2.5" class="st3" width="22.4" height="40.1"/>
					</g>
					<g id="Rectangle_6" transform="translate(141.194)">
						<rect x="0" y="0" class="st1" width="27.4" height="45.1"/>
						<rect x="2.5" y="2.5" class="st3" width="22.4" height="40.1"/>
					</g>
					<g id="Rectangle_7" transform="translate(176.493)">
						<rect x="0" y="0" class="st1" width="27.4" height="45.1"/>
						<rect x="2.5" y="2.5" class="st3" width="22.4" height="40.1"/>
					</g>
					<g id="Rectangle_8" transform="translate(210.601)">
						<rect x="0" y="0" class="st1" width="27.4" height="45.1"/>
						<rect x="2.5" y="2.5" class="st3" width="22.4" height="40.1"/>
					</g>
					<g id="Rectangle_9" transform="translate(247.09)">
						<rect x="0" y="0" class="st1" width="27.4" height="45.1"/>
						<rect x="2.5" y="2.5" class="st3" width="22.4" height="40.1"/>
					</g>
				</g>
				<path id="left_mixer" class="st4" d="M25,138.1c-8.7,0-15.8-7.1-15.8-15.8c0-6.3,3.8-12,9.6-14.5c8-3.4,17.3,0.4,20.7,8.4
					c0.8,1.9,1.2,4,1.2,6.2l0,0C40.7,131,33.7,138.1,25,138.1C25,138.1,25,138.1,25,138.1z"/>
				<g id="third_line" transform="translate(11 68.184)">
					<g id="Rectangle_11" transform="translate(0 26.83) rotate(-90)">
						
							<rect x="-5.4" y="5.4" transform="matrix(-2.535182e-06 -1 1 -2.535182e-06 -5.3665 32.1965)" class="st1" width="37.6" height="26.8"/>
						
							<rect x="-2.9" y="7.9" transform="matrix(-2.535182e-06 -1 1 -2.535182e-06 -5.3665 32.1965)" class="st3" width="32.6" height="21.8"/>
					</g>
					<g id="Rectangle_12" transform="translate(46.628 26.83) rotate(-90)">
						
							<rect x="-5.4" y="5.4" transform="matrix(-2.535182e-06 -1 1 -2.535182e-06 -5.3665 32.1965)" class="st1" width="37.6" height="26.8"/>
						
							<rect x="-2.9" y="7.9" transform="matrix(-2.535182e-06 -1 1 -2.535182e-06 -5.3665 32.1965)" class="st3" width="32.6" height="21.8"/>
					</g>
					<g id="Rectangle_13" transform="translate(93.255 26.83) rotate(-90)">
						
							<rect x="-5.4" y="5.4" transform="matrix(-2.535182e-06 -1 1 -2.535182e-06 -5.3665 32.1965)" class="st1" width="37.6" height="26.8"/>
						
							<rect x="-2.9" y="7.9" transform="matrix(-2.535182e-06 -1 1 -2.535182e-06 -5.3665 32.1965)" class="st3" width="32.6" height="21.8"/>
					</g>
					<g id="Rectangle_14" transform="translate(139.883 26.83) rotate(-90)">
						
							<rect x="-5.4" y="5.4" transform="matrix(-2.535182e-06 -1 1 -2.535182e-06 -5.3665 32.1965)" class="st1" width="37.6" height="26.8"/>
						
							<rect x="-2.9" y="7.9" transform="matrix(-2.535182e-06 -1 1 -2.535182e-06 -5.3665 32.1965)" class="st3" width="32.6" height="21.8"/>
					</g>
					<g id="Rectangle_15" transform="translate(186.511 26.83) rotate(-90)">
						
							<rect x="-5.4" y="5.4" transform="matrix(-2.535182e-06 -1 1 -2.535182e-06 -5.3665 32.1965)" class="st1" width="37.6" height="26.8"/>
						
							<rect x="-2.9" y="7.9" transform="matrix(-2.535182e-06 -1 1 -2.535182e-06 -5.3665 32.1965)" class="st3" width="32.6" height="21.8"/>
					</g>
					<g id="Rectangle_16" transform="translate(233.138 26.83) rotate(-90)">
						
							<rect x="-5.4" y="5.4" transform="matrix(-2.535182e-06 -1 1 -2.535182e-06 -5.3665 32.1965)" class="st1" width="37.6" height="26.8"/>
						
							<rect x="-2.9" y="7.9" transform="matrix(-2.535182e-06 -1 1 -2.535182e-06 -5.3665 32.1965)" class="st3" width="32.6" height="21.8"/>
					</g>
				</g>
				<g id="second_line" transform="translate(13.484 24.075)">
					<path id="circle_1" class="st4" d="M12.1,29.1C5.4,29.1,0,23.7,0,17c0-4.8,2.9-9.2,7.4-11.1c6.1-2.6,13.2,0.3,15.8,6.4
						s-0.3,13.2-6.4,15.8C15.3,28.8,13.7,29.1,12.1,29.1z M12,16.2v1.3h11.4v-1.3H12z"/>
					<path id="circle_2" class="st4" d="M57.9,10.6c3.5,5.7,1.8,13.1-3.8,16.6c-4.1,2.6-9.3,2.4-13.3-0.4
						c-5.4-3.8-6.8-11.4-2.9-16.8s11.4-6.8,16.8-2.9C55.9,8.1,57,9.3,57.9,10.6z M47,17.5l1.1-0.7l-6.1-9.7l-1.1,0.7L47,17.5z"/>
					<path id="circle_3" class="st4" d="M74.3,25.1c-4.5-5-4-12.6,0.9-17c3.6-3.2,8.8-4,13.2-2c6,2.8,8.6,10,5.8,16s-10,8.6-16,5.8
						C76.7,27.3,75.4,26.3,74.3,25.1z M83.8,16.5l-1,0.9l7.6,8.5l1-0.9L83.8,16.5z"/>
					<path id="circle_4" class="st4" d="M117.5,29.1c-6.7,0-12.1-5.4-12.1-12.1c0-4.8,2.9-9.2,7.4-11.1c6.1-2.6,13.2,0.3,15.8,6.4
						s-0.3,13.2-6.4,15.8C120.7,28.8,119.1,29.1,117.5,29.1z M117.5,16.2v1.3h11.4v-1.3H117.5z"/>
					<path id="circle_5" class="st4" d="M163.4,12.1c2.7,6.1,0,13.2-6.1,15.9c-4.4,2-9.6,1.1-13.1-2.2c-4.9-4.6-5.1-12.2-0.6-17.1
						s12.2-5.1,17.1-0.6C161.8,9.3,162.8,10.6,163.4,12.1z M151.7,17.4l1.2-0.5l-4.6-10.4L147,6.9L151.7,17.4z"/>
					<path id="circle_6" class="st4" d="M175.1,13.5c2-6.4,8.7-9.9,15.1-8c4.6,1.4,8,5.5,8.5,10.3c0.7,6.6-4.1,12.6-10.8,13.2
						c-6.6,0.7-12.6-4.1-13.2-10.8C174.5,16.7,174.7,15,175.1,13.5z M187.4,17.2l-1.3-0.4l-3.3,10.9l1.3,0.4L187.4,17.2z"/>
					<path id="circle_7" class="st4" d="M220.9,29.1c-6.7,0-12.1-5.4-12.1-12.1c0-4.8,2.9-9.2,7.4-11.1c6.1-2.6,13.2,0.3,15.8,6.4
						s-0.3,13.2-6.4,15.8C224.1,28.8,222.5,29.1,220.9,29.1z M220.9,16.2v1.3h11.4v-1.3H220.9z"/>
					<path id="circle_8" class="st4" d="M256,5c6.7,0.1,12,5.6,11.8,12.3c-0.1,4.8-3.1,9.2-7.5,11c-6.2,2.5-13.2-0.5-15.7-6.7
						s0.5-13.2,6.7-15.7C252.8,5.2,254.4,4.9,256,5z M255.8,17.8l0-1.3l-11.4-0.2l0,1.3L255.8,17.8z"/>
				</g>
				<g id="top_line" transform="translate(20.391 8.049)">
					<g id="Ellipse_2">
						<circle class="st1" cx="5.4" cy="5.4" r="5.4"/>
						<circle class="st3" cx="5.4" cy="5.4" r="2.9"/>
					</g>
					<g id="Ellipse_3" transform="translate(35.416)">
						<circle class="st1" cx="5.4" cy="5.4" r="5.4"/>
						<circle class="st3" cx="5.4" cy="5.4" r="2.9"/>
					</g>
					<g id="Ellipse_4" transform="translate(70.572)">
						<circle class="st1" cx="5.4" cy="5.4" r="5.4"/>
						<circle class="st3" cx="5.4" cy="5.4" r="2.9"/>
					</g>
					<g id="Ellipse_5" transform="translate(105.339)">
						<circle class="st1" cx="5.4" cy="5.4" r="5.4"/>
						<circle class="st3" cx="5.4" cy="5.4" r="2.9"/>
					</g>
					<g id="Ellipse_6" transform="translate(140.106)">
						<circle class="st1" cx="5.4" cy="5.4" r="5.4"/>
						<circle class="st3" cx="5.4" cy="5.4" r="2.9"/>
					</g>
					<g id="Ellipse_7" transform="translate(174.873)">
						<circle class="st1" cx="5.4" cy="5.4" r="5.4"/>
						<circle class="st3" cx="5.4" cy="5.4" r="2.9"/>
					</g>
					<g id="Ellipse_8" transform="translate(208.454)">
						<circle class="st1" cx="5.4" cy="5.4" r="5.4"/>
						<circle class="st3" cx="5.4" cy="5.4" r="2.9"/>
					</g>
					<g id="Ellipse_9" transform="translate(244.407)">
						<circle class="st1" cx="5.4" cy="5.4" r="5.4"/>
						<circle class="st3" cx="5.4" cy="5.4" r="2.9"/>
					</g>
				</g>
				<g id="fouth_line" transform="translate(51.568 106.593)">
					<g id="Rectangle_11-2" transform="translate(108.663 12.074) rotate(-90)">
						
							<rect x="-2.4" y="2.4" transform="matrix(-2.535182e-06 -1 1 -2.535182e-06 -2.4145 14.4885)" class="st1" width="16.9" height="12.1"/>
						
							<rect x="0.1" y="4.9" transform="matrix(-2.535182e-06 -1 1 -2.535182e-06 -2.4145 14.4885)" class="st3" width="11.9" height="7.1"/>
					</g>
					<g id="Rectangle_12-2" transform="translate(130.396 12.074) rotate(-90)">
						
							<rect x="-2.4" y="2.4" transform="matrix(-2.535182e-06 -1 1 -2.535182e-06 -2.4145 14.4885)" class="st1" width="16.9" height="12.1"/>
						
							<rect x="0.1" y="4.9" transform="matrix(-2.535182e-06 -1 1 -2.535182e-06 -2.4145 14.4885)" class="st3" width="11.9" height="7.1"/>
					</g>
					<g id="Rectangle_13-2" transform="translate(152.129 12.074) rotate(-90)">
						
							<rect x="-2.4" y="2.4" transform="matrix(-2.535182e-06 -1 1 -2.535182e-06 -2.4145 14.4885)" class="st1" width="16.9" height="12.1"/>
						
							<rect x="0.1" y="4.9" transform="matrix(-2.535182e-06 -1 1 -2.535182e-06 -2.4145 14.4885)" class="st3" width="11.9" height="7.1"/>
					</g>
					<g id="Rectangle_14-2" transform="translate(173.861 12.074) rotate(-90)">
						
							<rect x="-2.4" y="2.4" transform="matrix(-2.535182e-06 -1 1 -2.535182e-06 -2.4145 14.4885)" class="st1" width="16.9" height="12.1"/>
						
							<rect x="0.1" y="4.9" transform="matrix(-2.535182e-06 -1 1 -2.535182e-06 -2.4145 14.4885)" class="st3" width="11.9" height="7.1"/>
					</g>
					<g id="fouth_line-2" transform="translate(0)">
						<g id="Rectangle_12-3" transform="translate(0 12.074) rotate(-90)">
							
								<rect x="-2.4" y="2.4" transform="matrix(-2.535182e-06 -1 1 -2.535182e-06 -2.4145 14.4885)" class="st1" width="16.9" height="12.1"/>
							
								<rect x="0.1" y="4.9" transform="matrix(-2.535182e-06 -1 1 -2.535182e-06 -2.4145 14.4885)" class="st3" width="11.9" height="7.1"/>
						</g>
						<g id="Rectangle_13-3" transform="translate(21.733 12.074) rotate(-90)">
							
								<rect x="-2.4" y="2.4" transform="matrix(-2.535182e-06 -1 1 -2.535182e-06 -2.4145 14.4885)" class="st1" width="16.9" height="12.1"/>
							
								<rect x="0.1" y="4.9" transform="matrix(-2.535182e-06 -1 1 -2.535182e-06 -2.4145 14.4885)" class="st3" width="11.9" height="7.1"/>
						</g>
						<g id="Rectangle_14-3" transform="translate(43.465 12.074) rotate(-90)">
							
								<rect x="-2.4" y="2.4" transform="matrix(-2.535182e-06 -1 1 -2.535182e-06 -2.4145 14.4885)" class="st1" width="16.9" height="12.1"/>
							
								<rect x="0.1" y="4.9" transform="matrix(-2.535182e-06 -1 1 -2.535182e-06 -2.4145 14.4885)" class="st3" width="11.9" height="7.1"/>
						</g>
						<g id="Rectangle_15-2" transform="translate(65.198 12.074) rotate(-90)">
							
								<rect x="-2.4" y="2.4" transform="matrix(-2.535182e-06 -1 1 -2.535182e-06 -2.4145 14.4885)" class="st1" width="16.9" height="12.1"/>
							
								<rect x="0.1" y="4.9" transform="matrix(-2.535182e-06 -1 1 -2.535182e-06 -2.4145 14.4885)" class="st3" width="11.9" height="7.1"/>
						</g>
						<g id="Rectangle_16-2" transform="translate(86.931 12.074) rotate(-90)">
							
								<rect x="-2.4" y="2.4" transform="matrix(-2.535182e-06 -1 1 -2.535182e-06 -2.4145 14.4885)" class="st1" width="16.9" height="12.1"/>
							
								<rect x="0.1" y="4.9" transform="matrix(-2.535182e-06 -1 1 -2.535182e-06 -2.4145 14.4885)" class="st3" width="11.9" height="7.1"/>
						</g>
					</g>
				</g>
				<g id="fifth_line" transform="translate(51.568 128.403)">
					<g id="Rectangle_11-3" transform="translate(108.663 12.074) rotate(-90)">
						
							<rect x="-2.4" y="2.4" transform="matrix(-2.535182e-06 -1 1 -2.535182e-06 -2.4145 14.4885)" class="st1" width="16.9" height="12.1"/>
						
							<rect x="0.1" y="4.9" transform="matrix(-2.535182e-06 -1 1 -2.535182e-06 -2.4145 14.4885)" class="st3" width="11.9" height="7.1"/>
					</g>
					<g id="Rectangle_12-4" transform="translate(130.396 12.074) rotate(-90)">
						
							<rect x="-2.4" y="2.4" transform="matrix(-2.535182e-06 -1 1 -2.535182e-06 -2.4145 14.4885)" class="st1" width="16.9" height="12.1"/>
						
							<rect x="0.1" y="4.9" transform="matrix(-2.535182e-06 -1 1 -2.535182e-06 -2.4145 14.4885)" class="st3" width="11.9" height="7.1"/>
					</g>
					<g id="Rectangle_13-4" transform="translate(152.129 12.074) rotate(-90)">
						
							<rect x="-2.4" y="2.4" transform="matrix(-2.535182e-06 -1 1 -2.535182e-06 -2.4145 14.4885)" class="st1" width="16.9" height="12.1"/>
						
							<rect x="0.1" y="4.9" transform="matrix(-2.535182e-06 -1 1 -2.535182e-06 -2.4145 14.4885)" class="st3" width="11.9" height="7.1"/>
					</g>
					<g id="Rectangle_14-4" transform="translate(173.861 12.074) rotate(-90)">
						
							<rect x="-2.4" y="2.4" transform="matrix(-2.535182e-06 -1 1 -2.535182e-06 -2.4145 14.4885)" class="st1" width="16.9" height="12.1"/>
						
							<rect x="0.1" y="4.9" transform="matrix(-2.535182e-06 -1 1 -2.535182e-06 -2.4145 14.4885)" class="st3" width="11.9" height="7.1"/>
					</g>
					<g id="fouth_line-3" transform="translate(0)">
						<g id="Rectangle_12-5" transform="translate(0 12.074) rotate(-90)">
							
								<rect x="-2.4" y="2.4" transform="matrix(-2.535182e-06 -1 1 -2.535182e-06 -2.4145 14.4885)" class="st1" width="16.9" height="12.1"/>
							
								<rect x="0.1" y="4.9" transform="matrix(-2.535182e-06 -1 1 -2.535182e-06 -2.4145 14.4885)" class="st3" width="11.9" height="7.1"/>
						</g>
						<g id="Rectangle_13-5" transform="translate(21.733 12.074) rotate(-90)">
							
								<rect x="-2.4" y="2.4" transform="matrix(-2.535182e-06 -1 1 -2.535182e-06 -2.4145 14.4885)" class="st1" width="16.9" height="12.1"/>
							
								<rect x="0.1" y="4.9" transform="matrix(-2.535182e-06 -1 1 -2.535182e-06 -2.4145 14.4885)" class="st3" width="11.9" height="7.1"/>
						</g>
						<g id="Rectangle_14-5" transform="translate(43.465 12.074) rotate(-90)">
							
								<rect x="-2.4" y="2.4" transform="matrix(-2.535182e-06 -1 1 -2.535182e-06 -2.4145 14.4885)" class="st1" width="16.9" height="12.1"/>
							
								<rect x="0.1" y="4.9" transform="matrix(-2.535182e-06 -1 1 -2.535182e-06 -2.4145 14.4885)" class="st3" width="11.9" height="7.1"/>
						</g>
						<g id="Rectangle_15-3" transform="translate(65.198 12.074) rotate(-90)">
							
								<rect x="-2.4" y="2.4" transform="matrix(-2.535182e-06 -1 1 -2.535182e-06 -2.4145 14.4885)" class="st1" width="16.9" height="12.1"/>
							
								<rect x="0.1" y="4.9" transform="matrix(-2.535182e-06 -1 1 -2.535182e-06 -2.4145 14.4885)" class="st3" width="11.9" height="7.1"/>
						</g>
						<g id="Rectangle_16-3" transform="translate(86.931 12.074) rotate(-90)">
							
								<rect x="-2.4" y="2.4" transform="matrix(-2.535182e-06 -1 1 -2.535182e-06 -2.4145 14.4885)" class="st1" width="16.9" height="12.1"/>
							
								<rect x="0.1" y="4.9" transform="matrix(-2.535182e-06 -1 1 -2.535182e-06 -2.4145 14.4885)" class="st3" width="11.9" height="7.1"/>
						</g>
					</g>
				</g>
				<path id="right_mixer" class="st4" d="M265.6,138.1c-8.7,0-15.8-7.1-15.8-15.8c0-6.3,3.8-12,9.6-14.5c1.9-0.8,4-1.2,6.1-1.2l0,0
					c8.7,0,15.8,7.1,15.8,15.8c0,6.3-3.8,12-9.6,14.5C269.8,137.7,267.7,138.1,265.6,138.1z"/>
			</g>
		</g>
	</g>
</g>
<rect x="228" y="368" class="st4" width="15.7" height="1.3"/>
</svg>
