<svg xmlns="http://www.w3.org/2000/svg" viewBox="0 0 292.165 206.995">
  <defs>
    <style>
      .cls-1, .cls-2 {
        fill: #fff;
      }

      .cls-1 {
        stroke-linecap: round;
      }

      .cls-2 {
        stroke: #000;
        stroke-width: 5px;
      }

      .cls-3, .cls-4 {
        stroke: none;
      }

      .cls-5 {
        fill: none;
      }
    </style>
  </defs>
  <g id="Group_2" data-name="Group 2" transform="translate(-132 -196)">
    <g id="Group_1" data-name="Group 1" transform="translate(132 196)">
      <g id="Path_1" data-name="Path 1" class="cls-1" transform="translate(0)">
        <path class="cls-3" d="M 289.66552734375 204.4950714111328 L 2.500017642974854 204.4950714111328 L 2.500017642974854 2.49998950958252 L 289.66552734375 2.49998950958252 L 289.66552734375 204.4950714111328 Z"/>
        <path class="cls-4" d="M 5 4.999984741210938 L 5 201.9950714111328 L 287.1654968261719 201.9950714111328 L 287.1654968261719 4.999984741210938 L 5 4.999984741210938 M 0 -1.52587890625e-05 L 292.1654968261719 -1.52587890625e-05 L 292.1654968261719 206.9950714111328 L 0 206.9950714111328 L 0 -1.52587890625e-05 Z"/>
      </g>
      <g id="bottom_line" data-name="bottom line" transform="translate(7.513 154.407)">
        <g id="Rectangle_2" data-name="Rectangle 2" class="cls-2">
          <rect class="cls-3" width="27.367" height="45.075"/>
          <rect class="cls-5" x="2.5" y="2.5" width="22.367" height="40.075"/>
        </g>
        <g id="Rectangle_3" data-name="Rectangle 3" class="cls-2" transform="translate(36.489)">
          <rect class="cls-3" width="27.367" height="45.075"/>
          <rect class="cls-5" x="2.5" y="2.5" width="22.367" height="40.075"/>
        </g>
        <g id="Rectangle_4" data-name="Rectangle 4" class="cls-2" transform="translate(70.597)">
          <rect class="cls-3" width="27.367" height="45.075"/>
          <rect class="cls-5" x="2.5" y="2.5" width="22.367" height="40.075"/>
        </g>
        <g id="Rectangle_5" data-name="Rectangle 5" class="cls-2" transform="translate(105.896)">
          <rect class="cls-3" width="27.367" height="45.075"/>
          <rect class="cls-5" x="2.5" y="2.5" width="22.367" height="40.075"/>
        </g>
        <g id="Rectangle_6" data-name="Rectangle 6" class="cls-2" transform="translate(141.194)">
          <rect class="cls-3" width="27.367" height="45.075"/>
          <rect class="cls-5" x="2.5" y="2.5" width="22.367" height="40.075"/>
        </g>
        <g id="Rectangle_7" data-name="Rectangle 7" class="cls-2" transform="translate(176.493)">
          <rect class="cls-3" width="27.367" height="45.075"/>
          <rect class="cls-5" x="2.5" y="2.5" width="22.367" height="40.075"/>
        </g>
        <g id="Rectangle_8" data-name="Rectangle 8" class="cls-2" transform="translate(210.601)">
          <rect class="cls-3" width="27.367" height="45.075"/>
          <rect class="cls-5" x="2.5" y="2.5" width="22.367" height="40.075"/>
        </g>
        <g id="Rectangle_9" data-name="Rectangle 9" class="cls-2" transform="translate(247.09)">
          <rect class="cls-3" width="27.367" height="45.075"/>
          <rect class="cls-5" x="2.5" y="2.5" width="22.367" height="40.075"/>
        </g>
      </g>
      <path id="left_mixer" data-name="left mixer" class="cls-2" d="M15.761,31.522A15.765,15.765,0,0,1,9.626,1.239a15.756,15.756,0,0,1,21.9,14.522h0A15.748,15.748,0,0,1,15.761,31.522Z" transform="translate(9.192 106.588)"/>
      <g id="third_line" data-name="third line" transform="translate(11 68.184)">
        <g id="Rectangle_11" data-name="Rectangle 11" class="cls-2" transform="translate(0 26.83) rotate(-90)">
          <rect class="cls-3" width="26.83" height="37.563"/>
          <rect class="cls-5" x="2.5" y="2.5" width="21.83" height="32.563"/>
        </g>
        <g id="Rectangle_12" data-name="Rectangle 12" class="cls-2" transform="translate(46.628 26.83) rotate(-90)">
          <rect class="cls-3" width="26.83" height="37.563"/>
          <rect class="cls-5" x="2.5" y="2.5" width="21.83" height="32.563"/>
        </g>
        <g id="Rectangle_13" data-name="Rectangle 13" class="cls-2" transform="translate(93.255 26.83) rotate(-90)">
          <rect class="cls-3" width="26.83" height="37.563"/>
          <rect class="cls-5" x="2.5" y="2.5" width="21.83" height="32.563"/>
        </g>
        <g id="Rectangle_14" data-name="Rectangle 14" class="cls-2" transform="translate(139.883 26.83) rotate(-90)">
          <rect class="cls-3" width="26.83" height="37.563"/>
          <rect class="cls-5" x="2.5" y="2.5" width="21.83" height="32.563"/>
        </g>
        <g id="Rectangle_15" data-name="Rectangle 15" class="cls-2" transform="translate(186.511 26.83) rotate(-90)">
          <rect class="cls-3" width="26.83" height="37.563"/>
          <rect class="cls-5" x="2.5" y="2.5" width="21.83" height="32.563"/>
        </g>
        <g id="Rectangle_16" data-name="Rectangle 16" class="cls-2" transform="translate(233.138 26.83) rotate(-90)">
          <rect class="cls-3" width="26.83" height="37.563"/>
          <rect class="cls-5" x="2.5" y="2.5" width="21.83" height="32.563"/>
        </g>
      </g>
      <g id="second_line" data-name="second line" transform="translate(13.484 24.075)">
        <path id="circle_1" data-name="circle 1" class="cls-2" d="M12.057,24.114A12.06,12.06,0,0,1,7.364.948,12.06,12.06,0,0,1,16.75,23.167,11.982,11.982,0,0,1,12.057,24.114Zm-.023-12.868v1.343H23.45V11.246Z" transform="translate(0 4.971)"/>
        <path id="circle_2" data-name="circle 2" class="cls-2" d="M12.057,24.114A12.06,12.06,0,0,1,7.364.948,12.06,12.06,0,0,1,16.75,23.167,11.982,11.982,0,0,1,12.057,24.114Zm-.023-12.868v1.343H23.45V11.246Z" transform="matrix(-0.53, -0.848, 0.848, -0.53, 43.813, 33.642)"/>
        <path id="circle_3" data-name="circle 3" class="cls-2" d="M12.057,24.114A12.06,12.06,0,0,1,7.364.948,12.06,12.06,0,0,1,16.75,23.167,11.982,11.982,0,0,1,12.057,24.114Zm-.023-12.868v1.343H23.45V11.246Z" transform="translate(84.132 0) rotate(48)"/>
        <path id="circle_4" data-name="circle 4" class="cls-2" d="M12.057,24.114A12.06,12.06,0,0,1,7.364.948,12.06,12.06,0,0,1,16.75,23.167,11.982,11.982,0,0,1,12.057,24.114Zm-.023-12.868v1.343H23.45V11.246Z" transform="translate(105.431 4.971)"/>
        <path id="circle_5" data-name="circle 5" class="cls-2" d="M12.057,24.114A12.06,12.06,0,0,1,7.364.948,12.06,12.06,0,0,1,16.75,23.167,11.982,11.982,0,0,1,12.057,24.114Zm-.023-12.868v1.343H23.45V11.246Z" transform="matrix(-0.407, -0.914, 0.914, -0.407, 146.298, 32.947)"/>
        <path id="circle_6" data-name="circle 6" class="cls-2" d="M12.057,24.114A12.06,12.06,0,0,1,7.364.948,12.06,12.06,0,0,1,16.75,23.167,11.982,11.982,0,0,1,12.057,24.114Zm-.023-12.868v1.343H23.45V11.246Z" transform="translate(201.712 9.023) rotate(107)"/>
        <path id="circle_7" data-name="circle 7" class="cls-2" d="M12.057,24.114A12.06,12.06,0,0,1,7.364.948,12.06,12.06,0,0,1,16.75,23.167,11.982,11.982,0,0,1,12.057,24.114Zm-.023-12.868v1.343H23.45V11.246Z" transform="translate(208.848 4.971)"/>
        <path id="circle_8" data-name="circle 8" class="cls-2" d="M12.057,24.114A12.06,12.06,0,0,1,7.364.948,12.06,12.06,0,0,1,16.75,23.167,11.982,11.982,0,0,1,12.057,24.114Zm-.023-12.868v1.343H23.45V11.246Z" transform="matrix(-1, -0.017, 0.017, -1, 267.67, 29.294)"/>
      </g>
      <g id="top_line" data-name="top line" transform="translate(20.391 8.049)">
        <g id="Ellipse_2" data-name="Ellipse 2" class="cls-2">
          <circle class="cls-3" cx="5.366" cy="5.366" r="5.366"/>
          <circle class="cls-5" cx="5.366" cy="5.366" r="2.866"/>
        </g>
        <g id="Ellipse_3" data-name="Ellipse 3" class="cls-2" transform="translate(35.416)">
          <circle class="cls-3" cx="5.366" cy="5.366" r="5.366"/>
          <circle class="cls-5" cx="5.366" cy="5.366" r="2.866"/>
        </g>
        <g id="Ellipse_4" data-name="Ellipse 4" class="cls-2" transform="translate(70.572)">
          <circle class="cls-3" cx="5.366" cy="5.366" r="5.366"/>
          <circle class="cls-5" cx="5.366" cy="5.366" r="2.866"/>
        </g>
        <g id="Ellipse_5" data-name="Ellipse 5" class="cls-2" transform="translate(105.339)">
          <circle class="cls-3" cx="5.366" cy="5.366" r="5.366"/>
          <circle class="cls-5" cx="5.366" cy="5.366" r="2.866"/>
        </g>
        <g id="Ellipse_6" data-name="Ellipse 6" class="cls-2" transform="translate(140.106)">
          <circle class="cls-3" cx="5.366" cy="5.366" r="5.366"/>
          <circle class="cls-5" cx="5.366" cy="5.366" r="2.866"/>
        </g>
        <g id="Ellipse_7" data-name="Ellipse 7" class="cls-2" transform="translate(174.873)">
          <circle class="cls-3" cx="5.366" cy="5.366" r="5.366"/>
          <circle class="cls-5" cx="5.366" cy="5.366" r="2.866"/>
        </g>
        <g id="Ellipse_8" data-name="Ellipse 8" class="cls-2" transform="translate(208.454)">
          <circle class="cls-3" cx="5.366" cy="5.366" r="5.366"/>
          <circle class="cls-5" cx="5.366" cy="5.366" r="2.866"/>
        </g>
        <g id="Ellipse_9" data-name="Ellipse 9" class="cls-2" transform="translate(244.407)">
          <circle class="cls-3" cx="5.366" cy="5.366" r="5.366"/>
          <circle class="cls-5" cx="5.366" cy="5.366" r="2.866"/>
        </g>
      </g>
      <g id="fouth_line" data-name="fouth line" transform="translate(51.568 106.593)">
        <g id="Rectangle_11-2" data-name="Rectangle 11" class="cls-2" transform="translate(108.663 12.074) rotate(-90)">
          <rect class="cls-3" width="12.074" height="16.903"/>
          <rect class="cls-5" x="2.5" y="2.5" width="7.074" height="11.903"/>
        </g>
        <g id="Rectangle_12-2" data-name="Rectangle 12" class="cls-2" transform="translate(130.396 12.074) rotate(-90)">
          <rect class="cls-3" width="12.074" height="16.903"/>
          <rect class="cls-5" x="2.5" y="2.5" width="7.074" height="11.903"/>
        </g>
        <g id="Rectangle_13-2" data-name="Rectangle 13" class="cls-2" transform="translate(152.129 12.074) rotate(-90)">
          <rect class="cls-3" width="12.074" height="16.903"/>
          <rect class="cls-5" x="2.5" y="2.5" width="7.074" height="11.903"/>
        </g>
        <g id="Rectangle_14-2" data-name="Rectangle 14" class="cls-2" transform="translate(173.861 12.074) rotate(-90)">
          <rect class="cls-3" width="12.074" height="16.903"/>
          <rect class="cls-5" x="2.5" y="2.5" width="7.074" height="11.903"/>
        </g>
        <g id="fouth_line-2" data-name="fouth line" transform="translate(0)">
          <g id="Rectangle_12-3" data-name="Rectangle 12" class="cls-2" transform="translate(0 12.074) rotate(-90)">
            <rect class="cls-3" width="12.074" height="16.903"/>
            <rect class="cls-5" x="2.5" y="2.5" width="7.074" height="11.903"/>
          </g>
          <g id="Rectangle_13-3" data-name="Rectangle 13" class="cls-2" transform="translate(21.733 12.074) rotate(-90)">
            <rect class="cls-3" width="12.074" height="16.903"/>
            <rect class="cls-5" x="2.5" y="2.5" width="7.074" height="11.903"/>
          </g>
          <g id="Rectangle_14-3" data-name="Rectangle 14" class="cls-2" transform="translate(43.465 12.074) rotate(-90)">
            <rect class="cls-3" width="12.074" height="16.903"/>
            <rect class="cls-5" x="2.5" y="2.5" width="7.074" height="11.903"/>
          </g>
          <g id="Rectangle_15-2" data-name="Rectangle 15" class="cls-2" transform="translate(65.198 12.074) rotate(-90)">
            <rect class="cls-3" width="12.074" height="16.903"/>
            <rect class="cls-5" x="2.5" y="2.5" width="7.074" height="11.903"/>
          </g>
          <g id="Rectangle_16-2" data-name="Rectangle 16" class="cls-2" transform="translate(86.931 12.074) rotate(-90)">
            <rect class="cls-3" width="12.074" height="16.903"/>
            <rect class="cls-5" x="2.5" y="2.5" width="7.074" height="11.903"/>
          </g>
        </g>
      </g>
      <g id="fifth_line" data-name="fifth line" transform="translate(51.568 128.403)">
        <g id="Rectangle_11-3" data-name="Rectangle 11" class="cls-2" transform="translate(108.663 12.074) rotate(-90)">
          <rect class="cls-3" width="12.074" height="16.903"/>
          <rect class="cls-5" x="2.5" y="2.5" width="7.074" height="11.903"/>
        </g>
        <g id="Rectangle_12-4" data-name="Rectangle 12" class="cls-2" transform="translate(130.396 12.074) rotate(-90)">
          <rect class="cls-3" width="12.074" height="16.903"/>
          <rect class="cls-5" x="2.5" y="2.5" width="7.074" height="11.903"/>
        </g>
        <g id="Rectangle_13-4" data-name="Rectangle 13" class="cls-2" transform="translate(152.129 12.074) rotate(-90)">
          <rect class="cls-3" width="12.074" height="16.903"/>
          <rect class="cls-5" x="2.5" y="2.5" width="7.074" height="11.903"/>
        </g>
        <g id="Rectangle_14-4" data-name="Rectangle 14" class="cls-2" transform="translate(173.861 12.074) rotate(-90)">
          <rect class="cls-3" width="12.074" height="16.903"/>
          <rect class="cls-5" x="2.5" y="2.5" width="7.074" height="11.903"/>
        </g>
        <g id="fouth_line-3" data-name="fouth line" transform="translate(0)">
          <g id="Rectangle_12-5" data-name="Rectangle 12" class="cls-2" transform="translate(0 12.074) rotate(-90)">
            <rect class="cls-3" width="12.074" height="16.903"/>
            <rect class="cls-5" x="2.5" y="2.5" width="7.074" height="11.903"/>
          </g>
          <g id="Rectangle_13-5" data-name="Rectangle 13" class="cls-2" transform="translate(21.733 12.074) rotate(-90)">
            <rect class="cls-3" width="12.074" height="16.903"/>
            <rect class="cls-5" x="2.5" y="2.5" width="7.074" height="11.903"/>
          </g>
          <g id="Rectangle_14-5" data-name="Rectangle 14" class="cls-2" transform="translate(43.465 12.074) rotate(-90)">
            <rect class="cls-3" width="12.074" height="16.903"/>
            <rect class="cls-5" x="2.5" y="2.5" width="7.074" height="11.903"/>
          </g>
          <g id="Rectangle_15-3" data-name="Rectangle 15" class="cls-2" transform="translate(65.198 12.074) rotate(-90)">
            <rect class="cls-3" width="12.074" height="16.903"/>
            <rect class="cls-5" x="2.5" y="2.5" width="7.074" height="11.903"/>
          </g>
          <g id="Rectangle_16-3" data-name="Rectangle 16" class="cls-2" transform="translate(86.931 12.074) rotate(-90)">
            <rect class="cls-3" width="12.074" height="16.903"/>
            <rect class="cls-5" x="2.5" y="2.5" width="7.074" height="11.903"/>
          </g>
        </g>
      </g>
      <path id="right_mixer" data-name="right mixer" class="cls-2" d="M15.761,31.522A15.765,15.765,0,0,1,9.626,1.239,15.663,15.663,0,0,1,15.761,0V0A15.765,15.765,0,0,1,21.9,30.283,15.662,15.662,0,0,1,15.761,31.522Z" transform="translate(249.843 106.587)"/>
    </g>
  </g>
</svg>
