<svg id="Layer_1" data-name="Layer 1" xmlns="http://www.w3.org/2000/svg" xmlns:xlink="http://www.w3.org/1999/xlink" viewBox="0 0 379 392.85"><defs><style>.cls-1{fill:none;}.cls-2{fill:#fff;}.cls-3{clip-path:url(#clip-path);}.cls-4{fill:#707070;}.cls-5{fill:#100b0b;}.cls-6{fill:#050202;}</style><clipPath id="clip-path"><polygon class="cls-1" points="30.23 69.13 153.48 66.07 155.86 348.45 32.61 351.51 30.23 69.13"/></clipPath></defs><title>nosoundicon</title><g id="Group_1" data-name="Group 1"><g id="Circle"><ellipse id="Ellipse_1" data-name="Ellipse 1" cx="189.5" cy="196.43" rx="189.5" ry="196.43"/><ellipse id="Ellipse_2" data-name="Ellipse 2" class="cls-2" cx="188.87" cy="196.74" rx="158.02" ry="164"/></g><g id="Speaker"><g class="cls-3"><g id="Speaker-2"><g id="Path_1" data-name="Path 1"><path d="M261.65,187.35,152.36,284.8l-109-97L152.64,90.32Z"/><path class="cls-4" d="M43.82,187.77l108.54,96.6,108.81-97L152.64,90.74l-108.82,97m-.94,0L152.64,89.89l109.48,97.46L152.36,285.22Z"/></g></g></g><rect id="Rectangle_3" data-name="Rectangle 3" x="37.26" y="149.06" width="86.25" height="88.14"/></g><g id="curved_line" data-name="curved line"><path id="Path_5" data-name="Path 5" class="cls-5" d="M223.83,138.71c26.36-20.11,62.51-13.45,80.73,14.89s11.62,67.6-14.75,87.71-62.52,13.45-80.74-14.89S197.46,158.82,223.83,138.71Z"/><path id="Path_6" data-name="Path 6" class="cls-2" d="M216.4,142.33C241.7,123,276,128.83,293,155.28s10.29,63.54-15,82.83-59.59,13.49-76.61-13S191.1,161.62,216.4,142.33Z"/></g><g id="curved_line2" data-name="curved line2"><path id="Path_3" data-name="Path 3" class="cls-5" d="M213.32,150.25c17.37-13.25,41.2-8.85,53.2,9.82s7.66,44.55-9.72,57.8-41.2,8.86-53.21-9.81S195.94,163.51,213.32,150.25Z"/><path id="Path_4" data-name="Path 4" class="cls-2" d="M204.28,152.4c16.58-12.64,39.05-8.84,50.2,8.49s6.74,41.64-9.83,54.28-39.06,8.84-50.21-8.49S187.7,165,204.28,152.4Z"/></g><g id="curved_line3" data-name="curved line3"><path id="Path_3-2" data-name="Path 3-2" class="cls-5" d="M201.28,157.81c11.68-8.61,27.7-5,35.79,8s5.17,30.59-6.51,39.2-27.7,5-35.79-8S189.6,166.42,201.28,157.81Z"/><path id="Path_4-2" data-name="Path 4-2" class="cls-2" d="M195.2,159.05c11.14-8.21,26.26-5.06,33.77,7s4.56,28.58-6.59,36.79-26.26,5.06-33.76-7S184.06,167.26,195.2,159.05Z"/></g><rect id="Line" class="cls-6" x="6.41" y="179.91" width="364.52" height="39.66" transform="translate(-85.19 177.55) rotate(-42)"/></g></svg>