<svg id="el_BkSJzQAiX" data-name="Layer 1" xmlns="http://www.w3.org/2000/svg" xmlns:xlink="http://www.w3.org/1999/xlink" viewBox="0 0 379 392"><style>@-webkit-keyframes el_rkoSyzX0jQ_Animation{0%{opacity: 0;}16.67%{opacity: 0;}66.67%{opacity: 1;}83.33%{opacity: 1;}100%{opacity: 1;}}@keyframes el_rkoSyzX0jQ_Animation{0%{opacity: 0;}16.67%{opacity: 0;}66.67%{opacity: 1;}83.33%{opacity: 1;}100%{opacity: 1;}}@-webkit-keyframes el_HyCS1G7Ajm_Animation{0%{opacity: 0;}16.67%{opacity: 0;}50%{opacity: 1;}66.67%{opacity: 0.7998000000000001;}83.33%{opacity: 1;}100%{opacity: 1;}}@keyframes el_HyCS1G7Ajm_Animation{0%{opacity: 0;}16.67%{opacity: 0;}50%{opacity: 1;}66.67%{opacity: 0.7998000000000001;}83.33%{opacity: 1;}100%{opacity: 1;}}@-webkit-keyframes el_BJZlrkG7CsQ_Animation{0%{opacity: 0;}16.67%{opacity: 0;}33.33%{opacity: 1;}66.67%{opacity: 1;}83.33%{opacity: 1;}100%{opacity: 1;}}@keyframes el_BJZlrkG7CsQ_Animation{0%{opacity: 0;}16.67%{opacity: 0;}33.33%{opacity: 1;}66.67%{opacity: 1;}83.33%{opacity: 1;}100%{opacity: 1;}}#el_BkSJzQAiX *{-webkit-animation-duration: 3s;animation-duration: 3s;-webkit-animation-iteration-count: infinite;animation-iteration-count: infinite;-webkit-animation-timing-function: cubic-bezier(0, 0, 1, 1);animation-timing-function: cubic-bezier(0, 0, 1, 1);}#el_HyQS1GXCjQ{fill: #fff;}#el_HJSBJz7CiQ{-webkit-clip-path: url(#clip-path);clip-path: url(#clip-path);}#el_ByFB1GQAjX{fill: #707070;}#el_SknS1MmAiQ{fill: #100b0b;}#el_SkaByfmAim{fill: #fff;}#el_ry1eSyMm0sX{fill: #100b0b;}#el_HyggHkGm0sQ{fill: #fff;}#el_SJzxryMmCsm{fill: #100b0b;}#el_B1mlSJzQRs7{fill: #fff;}#el_BJ4gSJz70s7{fill: #050202;-webkit-transform: translate(-85.19px, 177.55px) rotate(-42deg);transform: translate(-85.19px, 177.55px) rotate(-42deg);}#el_BJZlrkG7CsQ{-webkit-animation-name: el_BJZlrkG7CsQ_Animation;animation-name: el_BJZlrkG7CsQ_Animation;opacity: 0;}#el_HyCS1G7Ajm{-webkit-animation-name: el_HyCS1G7Ajm_Animation;animation-name: el_HyCS1G7Ajm_Animation;opacity: 0;}#el_rkoSyzX0jQ{-webkit-animation-name: el_rkoSyzX0jQ_Animation;animation-name: el_rkoSyzX0jQ_Animation;opacity: 0;}</style><defs><clipPath id="clip-path"><polygon class="cls-1" points="30.23 69.13 153.48 66.07 155.86 348.45 32.61 351.51 30.23 69.13"/></clipPath></defs><title>nosoundicon</title><g id="el_r1xH1MmRjQ" data-name="Group 1"><g id="el_S1ZS1f7Csm"><ellipse id="el_HJMrkzQCoQ" data-name="Ellipse 1" cx="189.5" cy="196.43" rx="189.5" ry="196.43"/><ellipse id="el_HyQS1GXCjQ" data-name="Ellipse 2" cx="188.87" cy="196.74" rx="158.02" ry="164"/></g><g id="el_ByEHyMXAom"><g id="el_HJSBJz7CiQ"><g id="el_B18rkGXAoQ"><g id="el_rJPSJGmCsX" data-name="Path 1"><path d="M261.65,187.35,152.36,284.8l-109-97L152.64,90.32Z" id="el_HJ_r1G70o7"/><path d="M43.82,187.77l108.54,96.6,108.81-97L152.64,90.74l-108.82,97m-.94,0L152.64,89.89l109.48,97.46L152.36,285.22Z" id="el_ByFB1GQAjX"/></g></g></g><rect id="el_ByqSJzQRjm" data-name="Rectangle 3" x="37.26" y="149.06" width="86.25" height="88.14"/></g><g id="el_rkoSyzX0jQ" data-name="curved line"><path id="el_SknS1MmAiQ" data-name="Path 5" d="M223.83,138.71c26.36-20.11,62.51-13.45,80.73,14.89s11.62,67.6-14.75,87.71-62.52,13.45-80.74-14.89S197.46,158.82,223.83,138.71Z"/><path id="el_SkaByfmAim" data-name="Path 6" d="M216.4,142.33C241.7,123,276,128.83,293,155.28s10.29,63.54-15,82.83-59.59,13.49-76.61-13S191.1,161.62,216.4,142.33Z"/></g><g id="el_HyCS1G7Ajm" data-name="curved line2"><path id="el_ry1eSyMm0sX" data-name="Path 3" d="M213.32,150.25c17.37-13.25,41.2-8.85,53.2,9.82s7.66,44.55-9.72,57.8-41.2,8.86-53.21-9.81S195.94,163.51,213.32,150.25Z"/><path id="el_HyggHkGm0sQ" data-name="Path 4" d="M204.28,152.4c16.58-12.64,39.05-8.84,50.2,8.49s6.74,41.64-9.83,54.28-39.06,8.84-50.21-8.49S187.7,165,204.28,152.4Z"/></g><g id="el_BJZlrkG7CsQ" data-name="curved line3"><path id="el_SJzxryMmCsm" data-name="Path 3-2" d="M201.28,157.81c11.68-8.61,27.7-5,35.79,8s5.17,30.59-6.51,39.2-27.7,5-35.79-8S189.6,166.42,201.28,157.81Z"/><path id="el_B1mlSJzQRs7" data-name="Path 4-2" d="M195.2,159.05c11.14-8.21,26.26-5.06,33.77,7s4.56,28.58-6.59,36.79-26.26,5.06-33.76-7S184.06,167.26,195.2,159.05Z"/></g><rect id="el_BJ4gSJz70s7" x="6.41" y="179.91" width="364.52" height="39.66"/></g></svg>