<svg xmlns="http://www.w3.org/2000/svg" xmlns:xlink="http://www.w3.org/1999/xlink" viewBox="0 0 253.545 568.086">
  <defs>
    <style>
      .cls-1 {
        fill: #fff;
        stroke: #707070;
      }

      .cls-2 {
        clip-path: url(#clip-path);
      }

      .cls-3, .cls-4 {
        stroke: none;
      }

      .cls-4 {
        fill: #707070;
      }
    </style>
    <clipPath id="clip-path">
      <rect id="Rectangle_2" data-name="Rectangle 2" class="cls-1" width="253.545" height="568.086" transform="translate(939 350)"/>
    </clipPath>
  </defs>
  <g id="Group_2" data-name="Group 2" transform="translate(-878 -336.914)">
    <g id="Group_1" data-name="Group 1" transform="translate(-496 -183)">
      <g id="Mask_Group_1" data-name="Mask Group 1" class="cls-2" transform="translate(435 169.914)">
        <g id="Path_1" data-name="Path 1" transform="matrix(0.695, -0.719, 0.719, 0.695, 730.497, 557.873)">
          <path class="cls-3" d="M 300.4620971679688 281.4691467285156 C 300.2623291015625 281.4691467285156 300.057373046875 281.4586486816406 299.8529052734375 281.43798828125 L 32.07991790771484 254.369873046875 C 28.6881103515625 254.0269775390625 25.64961051940918 250.9678344726562 25.30657196044922 247.5504913330078 L 1.110995054244995 6.504368782043457 C 0.9576103687286377 4.976138114929199 1.373456597328186 3.581484317779541 2.281918048858643 2.577214956283569 C 3.155648946762085 1.611407399177551 4.422418117523193 1.079484343528748 5.848841190338135 1.079484343528748 C 6.048610210418701 1.079484343528748 6.253533363342285 1.08998429775238 6.458033561706543 1.11063814163208 L 274.2310485839844 28.17875289916992 C 277.6228942871094 28.52163887023926 280.661376953125 31.58079147338867 281.00439453125 34.99813842773438 L 305.1999816894531 276.0442504882812 C 305.3533935546875 277.5724792480469 304.9375 278.9671630859375 304.0289611816406 279.971435546875 C 303.1552124023438 280.9372253417969 301.8884887695312 281.4691467285156 300.4620971679688 281.4691467285156 Z"/>
          <path class="cls-4" d="M 5.84881591796875 1.579498291015625 C 4.56549072265625 1.579498291015625 3.430450439453125 2.052947998046875 2.65277099609375 2.91259765625 C 1.84027099609375 3.810760498046875 1.469390869140625 5.068603515625 1.608489990234375 6.45440673828125 L 25.8040771484375 247.5005187988281 C 25.958251953125 249.0367889404297 26.70541381835938 250.5492858886719 27.90786743164062 251.7594909667969 C 29.10888671875 252.9681701660156 30.60836791992188 253.7185211181641 32.13021850585938 253.8723754882812 L 299.9032897949219 280.9404907226562 C 300.0910034179688 280.95947265625 300.2789916992188 280.9690856933594 300.4621887207031 280.9690856933594 C 301.7454528808594 280.9690856933594 302.8804931640625 280.4956359863281 303.6582336425781 279.635986328125 C 304.4707336425781 278.7378540039062 304.8415832519531 277.4800109863281 304.7024536132812 276.0942077636719 L 280.5068664550781 35.04806518554688 C 280.3526916503906 33.51182556152344 279.6055297851562 31.99932861328125 278.403076171875 30.78913879394531 C 277.2020874023438 29.5804443359375 275.7025451660156 28.83006286621094 274.1806945800781 28.67620849609375 L 6.40765380859375 1.60809326171875 C 6.219970703125 1.589111328125 6.031951904296875 1.579498291015625 5.84881591796875 1.579498291015625 M 5.848785400390625 0.579498291015625 C 6.064727783203125 0.579498291015625 6.28436279296875 0.590545654296875 6.50830078125 0.613189697265625 L 274.28125 27.68128967285156 C 277.9029846191406 28.04740905761719 281.1358032226562 31.3009033203125 281.5018920898438 34.94818115234375 L 305.6974487304688 275.9943237304688 C 306.0408935546875 279.4161071777344 303.7387390136719 281.9690856933594 300.462158203125 281.9690856933594 C 300.2462463378906 281.9690856933594 300.0265808105469 281.9580383300781 299.8026428222656 281.9353942871094 L 32.0296630859375 254.8672943115234 C 28.407958984375 254.501220703125 25.17514038085938 251.2477111816406 24.80908203125 247.6004028320312 L 0.613494873046875 6.554290771484375 C 0.27001953125 3.132537841796875 2.572235107421875 0.579498291015625 5.848785400390625 0.579498291015625 Z"/>
        </g>
      </g>
    </g>
  </g>
</svg>
