<svg xmlns="http://www.w3.org/2000/svg" xmlns:xlink="http://www.w3.org/1999/xlink" viewBox="0 0 400 400">
  <defs>
    <style>
      .cls-1, .cls-2 {
        fill: #fff;
      }

      .cls-2 {
        stroke: #000;
        stroke-linejoin: bevel;
        stroke-width: 4px;
      }

      .cls-3 {
        clip-path: url(#clip-path);
      }

      .cls-4 {
        stroke: none;
      }

      .cls-5 {
        fill: none;
      }

      .cls-6 {
        filter: url(#Rectangle_1);
      }
    </style>
    <filter id="Rectangle_1" x="0" y="0" width="400" height="400" filterUnits="userSpaceOnUse">
      <feOffset dy="3" input="SourceAlpha"/>
      <feGaussianBlur stdDeviation="3" result="blur"/>
      <feFlood flood-opacity="0.161"/>
      <feComposite operator="in" in2="blur"/>
      <feComposite in="SourceGraphic"/>
    </filter>
    <clipPath id="clip-path">
      <path id="Path_2" data-name="Path 2" class="cls-1" d="M6.263,2.344,154.244-.35l-6.929,282.1L-.666,284.44Z" transform="matrix(0.998, 0.07, -0.07, 0.998, 232.795, 36.373)"/>
    </clipPath>
  </defs>
  <g id="Group_1" data-name="Group 1" transform="translate(-149 -156)">
    <g class="cls-6" transform="matrix(1, 0, 0, 1, 149, 156)">
      <g id="Rectangle_1-2" data-name="Rectangle 1" class="cls-2" transform="translate(9 6)">
        <rect class="cls-4" width="382" height="382"/>
        <rect class="cls-5" x="2" y="2" width="378" height="378"/>
      </g>
    </g>
    <rect id="Rectangle_2" data-name="Rectangle 2" width="360" height="302" transform="translate(169 202)"/>
    <rect id="Rectangle_3" data-name="Rectangle 3" width="11" height="24" transform="translate(158 170)"/>
    <rect id="Rectangle_4" data-name="Rectangle 4" width="32" height="24" transform="translate(201 170)"/>
    <rect id="Rectangle_5" data-name="Rectangle 5" width="32" height="24" transform="translate(265 170)"/>
    <rect id="Rectangle_6" data-name="Rectangle 6" width="32" height="24" transform="translate(393 170)"/>
    <rect id="Rectangle_7" data-name="Rectangle 7" width="32" height="24" transform="translate(329 170)"/>
    <rect id="Rectangle_8" data-name="Rectangle 8" width="32" height="24" transform="translate(457 170)"/>
    <rect id="Rectangle_9" data-name="Rectangle 9" width="19" height="24" transform="translate(521 170)"/>
    <rect id="Rectangle_11" data-name="Rectangle 11" width="19" height="24" transform="translate(158 512)"/>
    <rect id="Rectangle_12" data-name="Rectangle 12" width="32" height="24" transform="translate(209 512)"/>
    <rect id="Rectangle_13" data-name="Rectangle 13" width="32" height="24" transform="translate(273 512)"/>
    <rect id="Rectangle_14" data-name="Rectangle 14" width="32" height="24" transform="translate(337 512)"/>
    <rect id="Rectangle_15" data-name="Rectangle 15" width="32" height="24" transform="translate(401 512)"/>
    <rect id="Rectangle_16" data-name="Rectangle 16" width="32" height="24" transform="translate(465 512)"/>
    <rect id="Rectangle_17" data-name="Rectangle 17" width="11" height="24" transform="translate(529 512)"/>
    <g id="Mask_Group_1" data-name="Mask Group 1" class="cls-3" transform="matrix(-0.996, 0.087, -0.087, -0.996, 679.486, 485.693)">
      <path id="Path_1" data-name="Path 1" class="cls-1" d="M0,0,164.939,23.783l24.19,159.232L24.19,159.232Z" transform="translate(241.618 158.239) rotate(-40)"/>
    </g>
  </g>
</svg>
