<svg xmlns="http://www.w3.org/2000/svg" xmlns:xlink="http://www.w3.org/1999/xlink" viewBox="0 0 625.483 631.141">
  <defs>
    <style>
      .cls-1 {
        fill: #fff;
      }

      .cls-2 {
        fill: #3dbc51;
      }

      .cls-2, .cls-4 {
        stroke: #707070;
      }

      .cls-3 {
        clip-path: url(#clip-path);
      }

      .cls-5 {
        clip-path: url(#clip-path-2);
      }

      .cls-6, .cls-8 {
        stroke: none;
      }

      .cls-7 {
        fill: none;
      }

      .cls-8 {
        fill: #707070;
      }
    </style>
    <clipPath id="clip-path">
      <rect id="Rectangle_4" data-name="Rectangle 4" class="cls-1" width="252.118" height="535.75" transform="matrix(0.999, 0.035, -0.035, 0.999, 15.697, 0)"/>
    </clipPath>
    <clipPath id="clip-path-2">
      <path id="Path_2" data-name="Path 2" class="cls-1" d="M0,0,310.214-1.7l-3.6,556.1L-3.6,556.1Z" transform="matrix(0.999, 0.035, -0.035, 0.999, 23.01, 0)"/>
    </clipPath>
  </defs>
  <g id="Group_2" data-name="Group 2" transform="translate(-632.328 -184.093)">
    <g id="Group_1" data-name="Group 1" transform="translate(1899.811 1000.234) rotate(-180)">
      <g id="Ellipse_1" data-name="Ellipse 1" class="cls-2" transform="translate(642 185)">
        <ellipse class="cls-6" cx="301" cy="312" rx="301" ry="312"/>
        <ellipse class="cls-7" cx="301" cy="312" rx="300.5" ry="311.5"/>
      </g>
      <g id="Group_1-2" data-name="Group 1" transform="matrix(1, -0.017, 0.017, 1, 480.17, 140.363)">
        <g id="Mask_Group_2" data-name="Mask Group 2" class="cls-3" transform="matrix(0.999, -0.035, 0.035, 0.999, 297.453, 117.975)">
          <g id="Rectangle_3" data-name="Rectangle 3" class="cls-4" transform="matrix(0.719, -0.695, 0.695, 0.719, -176.363, 235.11)">
            <rect class="cls-6" width="267.087" height="265.511"/>
            <rect class="cls-7" x="0.5" y="0.5" width="266.087" height="264.511"/>
          </g>
        </g>
        <g id="Mask_Group_1" data-name="Mask Group 1" class="cls-5" transform="matrix(0.999, -0.035, 0.035, 0.999, 423.038, 117.364)">
          <g id="Path_1" data-name="Path 1" transform="matrix(0.719, -0.695, 0.695, 0.719, -216.91, 243.986)">
            <path class="cls-6" d="M 328.8787841796875 325.4508666992188 L 26.05731201171875 299.7897033691406 L 0.548566997051239 0.5482863187789917 L 303.3700256347656 26.20940971374512 L 328.8787841796875 325.4508666992188 Z"/>
            <path class="cls-8" d="M 1.097076416015625 1.096527099609375 L 26.5196533203125 299.3270568847656 L 328.3302612304688 324.9025573730469 L 302.9076843261719 26.67202758789062 L 1.097076416015625 1.096527099609375 M 0 -3.0517578125e-05 L 303.8324279785156 25.74679565429688 L 329.4273376464844 325.9990844726562 L 25.59490966796875 300.2522583007812 L 0 -3.0517578125e-05 Z"/>
          </g>
        </g>
      </g>
    </g>
  </g>
</svg>
