<svg xmlns="http://www.w3.org/2000/svg" xmlns:xlink="http://www.w3.org/1999/xlink" viewBox="0 0 526.657 559.617">
  <defs>
    <style>
      .cls-1, .cls-4 {
        fill: #fff;
      }

      .cls-1 {
        stroke: #707070;
      }

      .cls-2 {
        clip-path: url(#clip-path);
      }

      .cls-3 {
        fill: #100b0b;
      }

      .cls-5, .cls-6 {
        stroke: none;
      }

      .cls-6 {
        fill: #707070;
      }
    </style>
    <clipPath id="clip-path">
      <path id="Path_2" data-name="Path 2" class="cls-1" d="M4.838,2.027,218.191,0l-4.838,523.538L0,525.565Z" transform="matrix(0.998, 0.07, -0.07, 0.998, 36.662, 0)"/>
    </clipPath>
  </defs>
  <g id="Group_1" data-name="Group 1" transform="translate(-86.891 -69.823)">
    <g id="Speaker" transform="translate(86.891 69.823)">
      <g id="Speaker-2" data-name="Speaker" class="cls-2" transform="matrix(0.996, -0.087, 0.087, 0.996, 0, 22.166)">
        <g id="Path_1" data-name="Path 1" transform="translate(44.015 223.492) rotate(-40)">
          <path class="cls-5" d="M 268.4814147949219 267.3000183105469 L 6.742740154266357 261.3564453125 L 0.5123777389526367 0.5117769241333008 L 262.2510375976562 6.455349922180176 L 268.4814147949219 267.3000183105469 Z"/>
          <path class="cls-6" d="M 1.024749755859375 1.023529052734375 L 7.231170654296875 260.8674011230469 L 267.9690551757812 266.7882385253906 L 261.7625732421875 6.94439697265625 L 1.024749755859375 1.023529052734375 M 0 0 L 262.739501953125 5.96630859375 L 268.9938049316406 267.811767578125 L 6.2542724609375 261.8454895019531 L 0 0 Z"/>
        </g>
      </g>
      <rect id="Rectangle_3" data-name="Rectangle 3" width="149.297" height="163.452" transform="translate(53.517 169.187)"/>
    </g>
    <g id="curved_line" data-name="curved line" transform="matrix(0.848, -0.53, 0.53, 0.848, 312.185, 284.585)">
      <path id="Path_5" data-name="Path 5" class="cls-3" d="M104.571,0c58,.22,105.225,48.163,105.475,107.083S163.478,213.59,105.476,213.371.251,165.208,0,106.287,46.568-.219,104.571,0Z" transform="translate(10.167 2.909)"/>
      <path id="Path_6" data-name="Path 6" class="cls-4" d="M100.339,0c55.649.211,100.95,44.974,101.184,99.981S156.833,199.41,101.185,199.2.234,154.224,0,99.218,44.69-.21,100.339,0Z" transform="translate(0 0)"/>
    </g>
    <g id="curved_line2" data-name="curved line2" transform="translate(342.965 301.328) rotate(-38)">
      <path id="Path_3" data-name="Path 3" class="cls-3" d="M68.915,0c38.225.145,69.346,31.741,69.511,70.571s-30.689,70.191-68.914,70.046S.165,108.876,0,70.046,30.69-.144,68.915,0Z" transform="translate(12.242 6.683)"/>
      <path id="Path_4" data-name="Path 4" class="cls-4" d="M65.754,0c36.467.138,66.154,29.472,66.307,65.519s-29.286,65.157-65.753,65.018S.154,101.066,0,65.019,29.286-.138,65.754,0Z" transform="translate(0 0)"/>
    </g>
    <g id="curved_line3" data-name="curved line3" transform="translate(346.922 310.011) rotate(-43)">
      <path id="Path_3-2" data-name="Path 3" class="cls-3" d="M45.749,0C71.17.055,91.9,21.834,92.056,48.644s-20.328,48.5-45.748,48.445S.155,75.255,0,48.445,20.329-.055,45.749,0Z" transform="translate(8.155 4.596)"/>
      <path id="Path_4-2" data-name="Path 4" class="cls-4" d="M43.653,0C67.9.053,87.68,20.271,87.823,45.16s-19.4,45.022-43.652,44.97S.144,69.858,0,44.97,19.4-.052,43.653,0Z" transform="translate(0 0)"/>
    </g>
  </g>
</svg>
