<svg id="Layer_1" data-name="Layer 1" xmlns="http://www.w3.org/2000/svg" xmlns:xlink="http://www.w3.org/1999/xlink" viewBox="0 0 445.56 529.35"><defs><style>.cls-1{fill:none;}.cls-2{clip-path:url(#clip-path);}.cls-3{fill:#707070;}.cls-4{fill:#100b0b;}.cls-5{fill:#fff;}</style><clipPath id="clip-path"><polygon class="cls-1" points="0 5.68 213.34 0 217.46 523.67 4.12 529.35 0 5.68"/></clipPath></defs><title>soundonicon</title><g id="Group_1" data-name="Group 1"><g id="Speaker"><g class="cls-2"><g id="Speaker-2"><g id="Path_1" data-name="Path 1"><path d="M400.67,224.91,211.4,405.72l-188.78-180L211.88,44.88Z"/><path class="cls-3" d="M23.34,225.69,211.4,405,400,224.91,211.88,45.57,23.34,225.69m-1.45,0,190-181.5L401.39,224.91l-190,181.5Z"/></g></g></g><rect id="Rectangle_3" data-name="Rectangle 3" x="12.13" y="151.94" width="149.3" height="163.45"/></g><g id="curved_line" data-name="curved line"><path id="Path_5" data-name="Path 5" class="cls-4" d="M282.75,141.17c49.3-30.55,114.75-14.92,146.19,34.91s17,115-32.34,145.55-114.76,14.93-146.2-34.9S233.44,171.73,282.75,141.17Z"/><path id="Path_6" data-name="Path 6" class="cls-5" d="M269,146.34C316.3,117,378.43,131,407.79,177.49s14.8,108-32.5,137.32-109.45,15.37-138.8-31.16S221.69,175.65,269,146.34Z"/></g><g id="curved_line2" data-name="curved line2"><path id="Path_3" data-name="Path 3" class="cls-4" d="M282.75,171.56C313,148.14,356.94,153.88,381,184.38s19,74.2-11.18,97.62-74.19,17.68-98.23-12.81S252.54,195,282.75,171.56Z"/><path id="Path_4" data-name="Path 4" class="cls-5" d="M266.5,175.78c28.82-22.34,70.28-17.51,92.59,10.81s17,69.37-11.79,91.71S277,295.81,254.72,267.5,237.68,198.12,266.5,175.78Z"/></g><g id="curved_line3" data-name="curved line3"><path id="Path_3-2" data-name="Path 3-2" class="cls-4" d="M261.2,191.54c18.63-17.29,48.64-15.5,67,4s18.21,49.33-.42,66.63-48.64,15.51-67-4S242.57,208.84,261.2,191.54Z"/><path id="Path_4-2" data-name="Path 4-2" class="cls-5" d="M250.57,195.17c17.77-16.49,46-15.2,63.1,2.91s16.52,46.15-1.25,62.66-46,15.2-63.11-2.91S232.8,211.68,250.57,195.17Z"/></g></g></svg>