<svg id="Layer_1" data-name="Layer 1" xmlns="http://www.w3.org/2000/svg" viewBox="0 0 519.96 201.78"><defs><style>.cls-1{fill:#fff;}.cls-2,.cls-3,.cls-4,.cls-5,.cls-6{fill:none;}.cls-2,.cls-4,.cls-5,.cls-6{stroke:#000;}.cls-2,.cls-3{stroke-width:6px;}.cls-3{stroke:#0f0505;}.cls-4{stroke-linecap:round;stroke-width:4px;}.cls-5{stroke-width:5px;}.cls-6{stroke-width:3px;}</style></defs><title>speakersanddjboardicon</title><g id="Group_3" data-name="Group 3"><g id="Group_1" data-name="Group 1"><g id="Rectangle_1" data-name="Rectangle 1"><rect class="cls-1" width="152.91" height="181.91"/><rect class="cls-2" x="3" y="3" width="146.91" height="175.91"/></g><g id="Ellipse_3" data-name="Ellipse 3"><circle class="cls-1" cx="76.45" cy="117.58" r="52.73"/><circle class="cls-2" cx="76.45" cy="117.58" r="49.73"/></g><g id="Ellipse_2" data-name="Ellipse 2"><circle class="cls-1" cx="76.45" cy="117.58" r="31.64"/><circle class="cls-3" cx="76.45" cy="117.58" r="28.64"/></g><g id="Rectangle_2" data-name="Rectangle 2"><rect class="cls-1" x="13.18" y="179.8" width="21.09" height="8.44"/><rect class="cls-4" x="15.18" y="181.8" width="17.09" height="4.44"/></g><g id="Rectangle_3" data-name="Rectangle 3"><rect class="cls-1" x="118.64" y="179.8" width="21.09" height="8.44"/><rect class="cls-4" x="120.64" y="181.8" width="17.09" height="4.44"/></g><g id="Ellipse_4" data-name="Ellipse 4"><circle class="cls-1" cx="75.93" cy="39.55" r="18.45"/><circle class="cls-2" cx="75.93" cy="39.55" r="15.45"/></g></g><g id="Group_2" data-name="Group 2"><g id="Rectangle_1-2" data-name="Rectangle 1-2"><rect class="cls-1" x="367.05" width="152.91" height="181.91"/><rect class="cls-2" x="370.05" y="3" width="146.91" height="175.91"/></g><g id="Ellipse_3-2" data-name="Ellipse 3-2"><circle class="cls-1" cx="443.51" cy="117.58" r="52.73"/><circle class="cls-2" cx="443.51" cy="117.58" r="49.73"/></g><g id="Ellipse_2-2" data-name="Ellipse 2-2"><circle class="cls-1" cx="443.51" cy="117.58" r="31.64"/><circle class="cls-3" cx="443.51" cy="117.58" r="28.64"/></g><g id="Rectangle_2-2" data-name="Rectangle 2-2"><rect class="cls-1" x="380.24" y="179.8" width="21.09" height="8.44"/><rect class="cls-4" x="382.24" y="181.8" width="17.09" height="4.44"/></g><g id="Rectangle_3-2" data-name="Rectangle 3-2"><rect class="cls-1" x="485.69" y="179.8" width="21.09" height="8.44"/><rect class="cls-4" x="487.69" y="181.8" width="17.09" height="4.44"/></g><g id="Ellipse_4-2" data-name="Ellipse 4-2"><circle class="cls-1" cx="442.98" cy="39.55" r="18.45"/><circle class="cls-2" cx="442.98" cy="39.55" r="15.45"/></g></g><g id="Rectangle_4" data-name="Rectangle 4"><rect class="cls-1" x="168" y="169" width="183" height="19"/><rect class="cls-5" x="170.5" y="171.5" width="178" height="14"/></g><g id="Rectangle_5" data-name="Rectangle 5"><rect class="cls-1" x="184" y="155" width="148" height="19"/><rect class="cls-5" x="186.5" y="157.5" width="143" height="14"/></g><g id="Ellipse_5" data-name="Ellipse 5"><circle class="cls-1" cx="211.5" cy="178.5" r="6.5"/><circle class="cls-6" cx="211.5" cy="178.5" r="5"/></g><g id="Ellipse_6" data-name="Ellipse 6"><circle class="cls-1" cx="300.5" cy="178.5" r="6.5"/><circle class="cls-6" cx="300.5" cy="178.5" r="5"/></g><path id="Path_1" data-name="Path 1" class="cls-6" d="M211.5,178.5a14.81,14.81,0,0,1-10.23,13.07c-12.84,4.61-34.66,4.43-34.66,4.43h-46s-30.23.17-38.92-3c-4.31-1.57-7.5-11.9-2.44-14.49"/><path id="Path_2" data-name="Path 2" class="cls-6" d="M443.51,178.5c.07,4.92,2.4,15.61-2.27,18.53-3.66,2.21-36.14,2.7-36.14,2.7s-48.63.55-76.14.55c0,0-15.45-1.89-15.55-2.15l-6.21-2.3L300,190.67c-.24-.62,0-12.13,0-12.54"/></g></svg>