<svg version="1.1" id="el_BJL8GBH2X" xmlns="http://www.w3.org/2000/svg" xmlns:xlink="http://www.w3.org/1999/xlink" x="0px" y="0px" viewBox="0 0 422 314" style="enable-background:new 0 0 422 314;" xml:space="preserve"><style>@-webkit-keyframes el_HJ0lLUzHrhX_Animation{0%{opacity: 1;}10%{opacity: 0.5;}20%{opacity: 0;}30%{opacity: 0.5;}40%{opacity: 0;}50%{opacity: 0.5;}60%{opacity: 0;}70%{opacity: 0.5;}80%{opacity: 1;}90%{opacity: 0.5;}100%{opacity: 0;}}@keyframes el_HJ0lLUzHrhX_Animation{0%{opacity: 1;}10%{opacity: 0.5;}20%{opacity: 0;}30%{opacity: 0.5;}40%{opacity: 0;}50%{opacity: 0.5;}60%{opacity: 0;}70%{opacity: 0.5;}80%{opacity: 1;}90%{opacity: 0.5;}100%{opacity: 0;}}@-webkit-keyframes el_Hy6l8UGHrnm_Animation{0%{opacity: 1;}10%{opacity: 0.2;}20%{opacity: 0.5;}30%{opacity: 1;}40%{opacity: 0.5;}50%{opacity: 0;}60%{opacity: 0.5;}70%{opacity: 1;}80%{opacity: 0.5;}90%{opacity: 0;}100%{opacity: 0.5;}}@keyframes el_Hy6l8UGHrnm_Animation{0%{opacity: 1;}10%{opacity: 0.2;}20%{opacity: 0.5;}30%{opacity: 1;}40%{opacity: 0.5;}50%{opacity: 0;}60%{opacity: 0.5;}70%{opacity: 1;}80%{opacity: 0.5;}90%{opacity: 0;}100%{opacity: 0.5;}}@-webkit-keyframes el_SyieIIzHS37_Animation{0%{opacity: 1;}10%{opacity: 0;}20%{opacity: 0.5;}30%{opacity: 1;}40%{opacity: 0.5;}50%{opacity: 0;}60%{opacity: 0.5;}70%{opacity: 1;}80%{opacity: 0.5;}90%{opacity: 0;}100%{opacity: 0.5;}}@keyframes el_SyieIIzHS37_Animation{0%{opacity: 1;}10%{opacity: 0;}20%{opacity: 0.5;}30%{opacity: 1;}40%{opacity: 0.5;}50%{opacity: 0;}60%{opacity: 0.5;}70%{opacity: 1;}80%{opacity: 0.5;}90%{opacity: 0;}100%{opacity: 0.5;}}@-webkit-keyframes el_HJcx8LMBrhX_Animation{0%{opacity: 1;}10%{opacity: 0.5;}20%{opacity: 0;}30%{opacity: 0.5;}40%{opacity: 0;}50%{opacity: 0.5;}60%{opacity: 0;}70%{opacity: 0.5;}80%{opacity: 1;}90%{opacity: 0.5;}100%{opacity: 0;}}@keyframes el_HJcx8LMBrhX_Animation{0%{opacity: 1;}10%{opacity: 0.5;}20%{opacity: 0;}30%{opacity: 0.5;}40%{opacity: 0;}50%{opacity: 0.5;}60%{opacity: 0;}70%{opacity: 0.5;}80%{opacity: 1;}90%{opacity: 0.5;}100%{opacity: 0;}}@-webkit-keyframes el_rktgUIMBrnX_Animation{0%{opacity: 1;}10%{opacity: 0;}20%{opacity: 0.5;}30%{opacity: 1;}40%{opacity: 0.5;}50%{opacity: 0;}60%{opacity: 0.5;}70%{opacity: 1;}80%{opacity: 0.5;}90%{opacity: 0;}100%{opacity: 0.5;}}@keyframes el_rktgUIMBrnX_Animation{0%{opacity: 1;}10%{opacity: 0;}20%{opacity: 0.5;}30%{opacity: 1;}40%{opacity: 0.5;}50%{opacity: 0;}60%{opacity: 0.5;}70%{opacity: 1;}80%{opacity: 0.5;}90%{opacity: 0;}100%{opacity: 0.5;}}@-webkit-keyframes el_SkueU8fBB2Q_Animation{0%{opacity: 1;}10%{opacity: 0.2;}20%{opacity: 0.5;}30%{opacity: 1;}40%{opacity: 0.5;}50%{opacity: 0;}60%{opacity: 0.5;}70%{opacity: 1;}80%{opacity: 0.5;}90%{opacity: 0;}100%{opacity: 0.5;}}@keyframes el_SkueU8fBB2Q_Animation{0%{opacity: 1;}10%{opacity: 0.2;}20%{opacity: 0.5;}30%{opacity: 1;}40%{opacity: 0.5;}50%{opacity: 0;}60%{opacity: 0.5;}70%{opacity: 1;}80%{opacity: 0.5;}90%{opacity: 0;}100%{opacity: 0.5;}}@-webkit-keyframes el_Sy8l8LGSBnX_Animation{0%{opacity: 1;}10%{opacity: 0.5;}20%{opacity: 0.5;}30%{opacity: 0;}40%{opacity: 0.5;}50%{opacity: 1;}60%{opacity: 0.5;}70%{opacity: 0;}80%{opacity: 0.5;}90%{opacity: 1;}100%{opacity: 0.5;}}@keyframes el_Sy8l8LGSBnX_Animation{0%{opacity: 1;}10%{opacity: 0.5;}20%{opacity: 0.5;}30%{opacity: 0;}40%{opacity: 0.5;}50%{opacity: 1;}60%{opacity: 0.5;}70%{opacity: 0;}80%{opacity: 0.5;}90%{opacity: 1;}100%{opacity: 0.5;}}@-webkit-keyframes el_BkrgLUMrr2Q_Animation{0%{opacity: 1;}10%{opacity: 0;}20%{opacity: 0.5;}30%{opacity: 1;}40%{opacity: 0.5;}50%{opacity: 0.5;}60%{opacity: 0.5;}70%{opacity: 1;}80%{opacity: 0.5;}90%{opacity: 1;}100%{opacity: 0.5;}}@keyframes el_BkrgLUMrr2Q_Animation{0%{opacity: 1;}10%{opacity: 0;}20%{opacity: 0.5;}30%{opacity: 1;}40%{opacity: 0.5;}50%{opacity: 0.5;}60%{opacity: 0.5;}70%{opacity: 1;}80%{opacity: 0.5;}90%{opacity: 1;}100%{opacity: 0.5;}}@-webkit-keyframes el_rkEgL8MBH37_Animation{0%{opacity: 1;}10%{opacity: 0.5;}20%{opacity: 0;}30%{opacity: 0.5;}40%{opacity: 0;}50%{opacity: 0.5;}60%{opacity: 0;}70%{opacity: 0.5;}80%{opacity: 0;}90%{opacity: 0.5;}100%{opacity: 0;}}@keyframes el_rkEgL8MBH37_Animation{0%{opacity: 1;}10%{opacity: 0.5;}20%{opacity: 0;}30%{opacity: 0.5;}40%{opacity: 0;}50%{opacity: 0.5;}60%{opacity: 0;}70%{opacity: 0.5;}80%{opacity: 0;}90%{opacity: 0.5;}100%{opacity: 0;}}@-webkit-keyframes el_SJMeLLGrrnQ_Animation{0%{opacity: 1;}10%{opacity: 0.5;}20%{opacity: 0.5;}30%{opacity: 0;}40%{opacity: 0.5;}50%{opacity: 1;}60%{opacity: 0.5;}70%{opacity: 0;}80%{opacity: 0.5;}90%{opacity: 1;}100%{opacity: 0.5;}}@keyframes el_SJMeLLGrrnQ_Animation{0%{opacity: 1;}10%{opacity: 0.5;}20%{opacity: 0.5;}30%{opacity: 0;}40%{opacity: 0.5;}50%{opacity: 1;}60%{opacity: 0.5;}70%{opacity: 0;}80%{opacity: 0.5;}90%{opacity: 1;}100%{opacity: 0.5;}}@-webkit-keyframes el_rJblUIMBr2X_Animation{0%{opacity: 1;}10%{opacity: 0.5;}20%{opacity: 0;}30%{opacity: 0.5;}40%{opacity: 1;}50%{opacity: 0.5;}60%{opacity: 1;}70%{opacity: 0.5;}80%{opacity: 1;}90%{opacity: 0.5;}100%{opacity: 1;}}@keyframes el_rJblUIMBr2X_Animation{0%{opacity: 1;}10%{opacity: 0.5;}20%{opacity: 0;}30%{opacity: 0.5;}40%{opacity: 1;}50%{opacity: 0.5;}60%{opacity: 1;}70%{opacity: 0.5;}80%{opacity: 1;}90%{opacity: 0.5;}100%{opacity: 1;}}@-webkit-keyframes el_BJxxI8GSS3Q_Animation{0%{opacity: 1;}10%{opacity: 0;}20%{opacity: 0.5;}30%{opacity: 1;}40%{opacity: 0.5;}50%{opacity: 0;}60%{opacity: 0.5;}70%{opacity: 1;}80%{opacity: 0.5;}90%{opacity: 1;}100%{opacity: 0.5;}}@keyframes el_BJxxI8GSS3Q_Animation{0%{opacity: 1;}10%{opacity: 0;}20%{opacity: 0.5;}30%{opacity: 1;}40%{opacity: 0.5;}50%{opacity: 0;}60%{opacity: 0.5;}70%{opacity: 1;}80%{opacity: 0.5;}90%{opacity: 1;}100%{opacity: 0.5;}}@-webkit-keyframes el_SJylIIMrH27_Animation{0%{opacity: 1;}10%{opacity: 0.5;}20%{opacity: 0;}30%{opacity: 0.5;}40%{opacity: 1;}50%{opacity: 0.5;}60%{opacity: 0;}70%{opacity: 0.5;}80%{opacity: 1;}90%{opacity: 0.5;}100%{opacity: 0;}}@keyframes el_SJylIIMrH27_Animation{0%{opacity: 1;}10%{opacity: 0.5;}20%{opacity: 0;}30%{opacity: 0.5;}40%{opacity: 1;}50%{opacity: 0.5;}60%{opacity: 0;}70%{opacity: 0.5;}80%{opacity: 1;}90%{opacity: 0.5;}100%{opacity: 0;}}@-webkit-keyframes el_H16IIzrSnQ_Animation{0%{opacity: 1;}10%{opacity: 0;}20%{opacity: 0.5;}30%{opacity: 1;}40%{opacity: 0.5;}50%{opacity: 0;}60%{opacity: 0.5;}70%{opacity: 1;}80%{opacity: 0.5;}90%{opacity: 0;}100%{opacity: 0.5;}}@keyframes el_H16IIzrSnQ_Animation{0%{opacity: 1;}10%{opacity: 0;}20%{opacity: 0.5;}30%{opacity: 1;}40%{opacity: 0.5;}50%{opacity: 0;}60%{opacity: 0.5;}70%{opacity: 1;}80%{opacity: 0.5;}90%{opacity: 0;}100%{opacity: 0.5;}}@-webkit-keyframes el_r13I8zBH2m_Animation{0%{opacity: 1;}10%{opacity: 0.5;}100%{opacity: 0.5;}}@keyframes el_r13I8zBH2m_Animation{0%{opacity: 1;}10%{opacity: 0.5;}100%{opacity: 0.5;}}@-webkit-keyframes el_HJsILMBShm_Animation{0%{opacity: 1;}10%{opacity: 0.5;}20%{opacity: 0;}30%{opacity: 0.5;}40%{opacity: 1;}50%{opacity: 0.5;}60%{opacity: 0;}70%{opacity: 0.5;}80%{opacity: 1;}90%{opacity: 0.5;}100%{opacity: 0;}}@keyframes el_HJsILMBShm_Animation{0%{opacity: 1;}10%{opacity: 0.5;}20%{opacity: 0;}30%{opacity: 0.5;}40%{opacity: 1;}50%{opacity: 0.5;}60%{opacity: 0;}70%{opacity: 0.5;}80%{opacity: 1;}90%{opacity: 0.5;}100%{opacity: 0;}}@-webkit-keyframes el_HJ9UIfHH3Q_Animation{0%{opacity: 1;}10%{opacity: 0.5;}20%{opacity: 0;}30%{opacity: 0.5;}40%{opacity: 1;}50%{opacity: 0.5;}60%{opacity: 1;}70%{opacity: 0.5;}80%{opacity: 1;}90%{opacity: 0.5;}100%{opacity: 1;}}@keyframes el_HJ9UIfHH3Q_Animation{0%{opacity: 1;}10%{opacity: 0.5;}20%{opacity: 0;}30%{opacity: 0.5;}40%{opacity: 1;}50%{opacity: 0.5;}60%{opacity: 1;}70%{opacity: 0.5;}80%{opacity: 1;}90%{opacity: 0.5;}100%{opacity: 1;}}@-webkit-keyframes el_Bk_UUzSS37_Animation{0%{opacity: 1;}10%{opacity: 0;}20%{opacity: 0.5;}30%{opacity: 1;}40%{opacity: 0.5;}50%{opacity: 0;}60%{opacity: 0.5;}70%{opacity: 1;}80%{opacity: 0.5;}90%{opacity: 0;}100%{opacity: 0.5;}}@keyframes el_Bk_UUzSS37_Animation{0%{opacity: 1;}10%{opacity: 0;}20%{opacity: 0.5;}30%{opacity: 1;}40%{opacity: 0.5;}50%{opacity: 0;}60%{opacity: 0.5;}70%{opacity: 1;}80%{opacity: 0.5;}90%{opacity: 0;}100%{opacity: 0.5;}}@-webkit-keyframes el_ByP8LfrS2m_Animation{0%{opacity: 1;}10%{opacity: 0.5;}20%{opacity: 0;}30%{opacity: 0.5;}40%{opacity: 1;}50%{opacity: 0.5;}60%{opacity: 1;}70%{opacity: 0.5;}80%{opacity: 1;}90%{opacity: 0.5;}100%{opacity: 1;}}@keyframes el_ByP8LfrS2m_Animation{0%{opacity: 1;}10%{opacity: 0.5;}20%{opacity: 0;}30%{opacity: 0.5;}40%{opacity: 1;}50%{opacity: 0.5;}60%{opacity: 1;}70%{opacity: 0.5;}80%{opacity: 1;}90%{opacity: 0.5;}100%{opacity: 1;}}@-webkit-keyframes el_ry88Izrr2Q_Animation{0%{opacity: 1;}10%{opacity: 0;}20%{opacity: 0.5;}30%{opacity: 1;}40%{opacity: 0.5;}50%{opacity: 1;}60%{opacity: 0.5;}70%{opacity: 1;}80%{opacity: 0.5;}90%{opacity: 1;}100%{opacity: 0.5;}}@keyframes el_ry88Izrr2Q_Animation{0%{opacity: 1;}10%{opacity: 0;}20%{opacity: 0.5;}30%{opacity: 1;}40%{opacity: 0.5;}50%{opacity: 1;}60%{opacity: 0.5;}70%{opacity: 1;}80%{opacity: 0.5;}90%{opacity: 1;}100%{opacity: 0.5;}}@-webkit-keyframes el_HJHIIzBBnQ_Animation{0%{opacity: 1;}10%{opacity: 0.5;}20%{opacity: 0;}30%{opacity: 0.5;}40%{opacity: 1;}50%{opacity: 0.5;}60%{opacity: 0;}70%{opacity: 0.5;}80%{opacity: 1;}90%{opacity: 0.5;}100%{opacity: 0;}}@keyframes el_HJHIIzBBnQ_Animation{0%{opacity: 1;}10%{opacity: 0.5;}20%{opacity: 0;}30%{opacity: 0.5;}40%{opacity: 1;}50%{opacity: 0.5;}60%{opacity: 0;}70%{opacity: 0.5;}80%{opacity: 1;}90%{opacity: 0.5;}100%{opacity: 0;}}#el_BJL8GBH2X *{-webkit-animation-duration: 3s;animation-duration: 3s;-webkit-animation-iteration-count: infinite;animation-iteration-count: infinite;-webkit-animation-timing-function: cubic-bezier(0, 0, 1, 1);animation-timing-function: cubic-bezier(0, 0, 1, 1);}#el_ryVUUMHrn7{-webkit-transform: translate(23px, -21px);transform: translate(23px, -21px);}#el_ry88Izrr2Q{fill: #D0D0D0;-webkit-animation-name: el_ry88Izrr2Q_Animation;animation-name: el_ry88Izrr2Q_Animation;}#el_ByP8LfrS2m{fill: #D0D0D0;-webkit-animation-name: el_ByP8LfrS2m_Animation;animation-name: el_ByP8LfrS2m_Animation;}#el_Bk_UUzSS37{fill: #3DBC51;-webkit-animation-name: el_Bk_UUzSS37_Animation;animation-name: el_Bk_UUzSS37_Animation;}#el_HyK8LfBSn7{-webkit-transform: translate(13px, -21px);transform: translate(13px, -21px);}#el_HJ9UIfHH3Q{fill: #D0D0D0;-webkit-animation-name: el_HJ9UIfHH3Q_Animation;animation-name: el_HJ9UIfHH3Q_Animation;}#el_H16IIzrSnQ{fill: #3DBC51;-webkit-animation-name: el_H16IIzrSnQ_Animation;animation-name: el_H16IIzrSnQ_Animation;}#el_rJR8IMBr2m{-webkit-transform: translate(3px, -21px);transform: translate(3px, -21px);}#el_BJxxI8GSS3Q{fill: #D0D0D0;-webkit-animation-name: el_BJxxI8GSS3Q_Animation;animation-name: el_BJxxI8GSS3Q_Animation;}#el_rJblUIMBr2X{fill: #D0D0D0;-webkit-animation-name: el_rJblUIMBr2X_Animation;animation-name: el_rJblUIMBr2X_Animation;}#el_H1mlUUGHr2m{-webkit-transform: translate(108px, -21px);transform: translate(108px, -21px);}#el_rkEgL8MBH37{fill: #D0D0D0;-webkit-animation-name: el_rkEgL8MBH37_Animation;animation-name: el_rkEgL8MBH37_Animation;}#el_BkrgLUMrr2Q{fill: #D0D0D0;-webkit-animation-name: el_BkrgLUMrr2Q_Animation;animation-name: el_BkrgLUMrr2Q_Animation;}#el_HJPe8LMHS3X{-webkit-transform: translate(3px, -170px);transform: translate(3px, -170px);}#el_rktgUIMBrnX{fill: #3DBC51;-webkit-animation-name: el_rktgUIMBrnX_Animation;animation-name: el_rktgUIMBrnX_Animation;}#el_HJcx8LMBrhX{fill: #3DBC51;-webkit-animation-name: el_HJcx8LMBrhX_Animation;animation-name: el_HJcx8LMBrhX_Animation;}#el_Sy3gL8MBHn7{-webkit-transform: translate(-102px, -170px);transform: translate(-102px, -170px);}#el_HJ0lLUzHrhX{fill: #3DBC51;-webkit-animation-name: el_HJ0lLUzHrhX_Animation;animation-name: el_HJ0lLUzHrhX_Animation;}#el_HJHIIzBBnQ{-webkit-animation-name: el_HJHIIzBBnQ_Animation;animation-name: el_HJHIIzBBnQ_Animation;}#el_HJsILMBShm{-webkit-animation-name: el_HJsILMBShm_Animation;animation-name: el_HJsILMBShm_Animation;}#el_r13I8zBH2m{-webkit-animation-name: el_r13I8zBH2m_Animation;animation-name: el_r13I8zBH2m_Animation;}#el_SJylIIMrH27{-webkit-animation-name: el_SJylIIMrH27_Animation;animation-name: el_SJylIIMrH27_Animation;}#el_SJMeLLGrrnQ{-webkit-animation-name: el_SJMeLLGrrnQ_Animation;animation-name: el_SJMeLLGrrnQ_Animation;}#el_Sy8l8LGSBnX{-webkit-animation-name: el_Sy8l8LGSBnX_Animation;animation-name: el_Sy8l8LGSBnX_Animation;}#el_SkueU8fBB2Q{-webkit-animation-name: el_SkueU8fBB2Q_Animation;animation-name: el_SkueU8fBB2Q_Animation;}#el_SyieIIzHS37{-webkit-animation-name: el_SyieIIzHS37_Animation;animation-name: el_SyieIIzHS37_Animation;}#el_Hy6l8UGHrnm{-webkit-animation-name: el_Hy6l8UGHrnm_Animation;animation-name: el_Hy6l8UGHrnm_Animation;}</style>

<g id="el_BJe8LfHH37">
	<g id="el_B1-LUzHB2m">
		<g id="el_HkzL8MrBhm">
			<rect id="el_rJmUIzSr2X" y="290" width="422" height="24"/>
			<g id="el_ryVUUMHrn7">
				<path id="el_HJHIIzBBnQ" d="M3.5,242h54c6.4,0,11.5,5.1,11.5,11.5c0,6.4-5.1,11.5-11.5,11.5h-54C-2.9,265-8,259.9-8,253.5&#10;&#9;&#9;&#9;&#9;&#9;C-8,247.1-2.9,242,3.5,242z"/>
				<path id="el_ry88Izrr2Q" d="M3.5,278h54c6.4,0,11.5,5.1,11.5,11.5S63.9,301,57.5,301h-54C-2.9,301-8,295.9-8,289.5&#10;&#9;&#9;&#9;&#9;&#9;S-2.9,278,3.5,278z"/>
				<path id="el_ByP8LfrS2m" d="M3.5,206h54c6.4,0,11.5,5.1,11.5,11.5S63.9,229,57.5,229h-54C-2.9,229-8,223.9-8,217.5&#10;&#9;&#9;&#9;&#9;&#9;S-2.9,206,3.5,206z"/>
				<path id="el_Bk_UUzSS37" d="M3.5,170h54c6.4,0,11.5,5.1,11.5,11.5l0,0c0,6.4-5.1,11.5-11.5,11.5h-54&#10;&#9;&#9;&#9;&#9;&#9;C-2.9,193-8,187.9-8,181.5l0,0C-8,175.1-2.9,170,3.5,170z"/>
			</g>
			<g id="el_HyK8LfBSn7">
				<path id="el_HJ9UIfHH3Q" d="M118.5,242h54c6.4,0,11.5,5.1,11.5,11.5l0,0c0,6.4-5.1,11.5-11.5,11.5h-54&#10;&#9;&#9;&#9;&#9;&#9;c-6.4,0-11.5-5.1-11.5-11.5l0,0C107,247.1,112.1,242,118.5,242z"/>
				<path id="el_HJsILMBShm" d="M118.5,278h54c6.4,0,11.5,5.1,11.5,11.5l0,0c0,6.4-5.1,11.5-11.5,11.5h-54c-6.4,0-11.5-5.1-11.5-11.5&#10;&#9;&#9;&#9;&#9;&#9;l0,0C107,283.1,112.1,278,118.5,278z"/>
				<path id="el_r13I8zBH2m" d="M118.5,206h54c6.4,0,11.5,5.1,11.5,11.5l0,0c0,6.4-5.1,11.5-11.5,11.5h-54c-6.4,0-11.5-5.1-11.5-11.5&#10;&#9;&#9;&#9;&#9;&#9;l0,0C107,211.1,112.1,206,118.5,206z"/>
				<path id="el_H16IIzrSnQ" d="M118.5,170h54c6.4,0,11.5,5.1,11.5,11.5l0,0c0,6.4-5.1,11.5-11.5,11.5h-54&#10;&#9;&#9;&#9;&#9;&#9;c-6.4,0-11.5-5.1-11.5-11.5l0,0C107,175.1,112.1,170,118.5,170z"/>
			</g>
			<g id="el_rJR8IMBr2m">
				<path id="el_SJylIIMrH27" d="M233.5,242h54c6.4,0,11.5,5.1,11.5,11.5l0,0c0,6.4-5.1,11.5-11.5,11.5h-54c-6.4,0-11.5-5.1-11.5-11.5&#10;&#9;&#9;&#9;&#9;&#9;l0,0C222,247.1,227.1,242,233.5,242z"/>
				<path id="el_BJxxI8GSS3Q" d="M233.5,278h54c6.4,0,11.5,5.1,11.5,11.5l0,0c0,6.4-5.1,11.5-11.5,11.5h-54&#10;&#9;&#9;&#9;&#9;&#9;c-6.4,0-11.5-5.1-11.5-11.5l0,0C222,283.1,227.1,278,233.5,278z"/>
				<path id="el_rJblUIMBr2X" d="M233.5,206h54c6.4,0,11.5,5.1,11.5,11.5l0,0c0,6.4-5.1,11.5-11.5,11.5h-54&#10;&#9;&#9;&#9;&#9;&#9;c-6.4,0-11.5-5.1-11.5-11.5l0,0C222,211.1,227.1,206,233.5,206z"/>
				<path id="el_SJMeLLGrrnQ" d="M233.5,170h54c6.4,0,11.5,5.1,11.5,11.5l0,0c0,6.4-5.1,11.5-11.5,11.5h-54c-6.4,0-11.5-5.1-11.5-11.5&#10;&#9;&#9;&#9;&#9;&#9;l0,0C222,175.1,227.1,170,233.5,170z"/>
			</g>
			<g id="el_H1mlUUGHr2m">
				<path id="el_rkEgL8MBH37" d="M233.5,242h54c6.4,0,11.5,5.1,11.5,11.5c0,6.4-5.1,11.5-11.5,11.5h-54&#10;&#9;&#9;&#9;&#9;&#9;c-6.4,0-11.5-5.1-11.5-11.5C222,247.1,227.1,242,233.5,242z"/>
				<path id="el_BkrgLUMrr2Q" d="M233.5,278h54c6.4,0,11.5,5.1,11.5,11.5s-5.1,11.5-11.5,11.5h-54c-6.4,0-11.5-5.1-11.5-11.5&#10;&#9;&#9;&#9;&#9;&#9;S227.1,278,233.5,278z"/>
				<path id="el_Sy8l8LGSBnX" d="M233.5,206h54c6.4,0,11.5,5.1,11.5,11.5l0,0c0,6.4-5.1,11.5-11.5,11.5h-54&#10;&#9;&#9;&#9;&#9;&#9;c-6.4,0-11.5-5.1-11.5-11.5l0,0C222,211.1,227.1,206,233.5,206z"/>
			</g>
			<g id="el_HJPe8LMHS3X">
				<path id="el_SkueU8fBB2Q" d="M233.5,242h54c6.4,0,11.5,5.1,11.5,11.5l0,0c0,6.4-5.1,11.5-11.5,11.5h-54&#10;&#9;&#9;&#9;&#9;&#9;c-6.4,0-11.5-5.1-11.5-11.5l0,0C222,247.1,227.1,242,233.5,242z"/>
				<path id="el_rktgUIMBrnX" d="M233.5,278h54c6.4,0,11.5,5.1,11.5,11.5l0,0c0,6.4-5.1,11.5-11.5,11.5h-54&#10;&#9;&#9;&#9;&#9;&#9;c-6.4,0-11.5-5.1-11.5-11.5l0,0C222,283.1,227.1,278,233.5,278z"/>
				<path id="el_HJcx8LMBrhX" d="M233.5,206h54c6.4,0,11.5,5.1,11.5,11.5l0,0c0,6.4-5.1,11.5-11.5,11.5h-54&#10;&#9;&#9;&#9;&#9;&#9;c-6.4,0-11.5-5.1-11.5-11.5l0,0C222,211.1,227.1,206,233.5,206z"/>
				<path id="el_SyieIIzHS37" d="M233.5,170h54c6.4,0,11.5,5.1,11.5,11.5l0,0c0,6.4-5.1,11.5-11.5,11.5h-54&#10;&#9;&#9;&#9;&#9;&#9;c-6.4,0-11.5-5.1-11.5-11.5l0,0C222,175.1,227.1,170,233.5,170z"/>
			</g>
			<g id="el_Sy3gL8MBHn7">
				<path id="el_Hy6l8UGHrnm" d="M233.5,242h54c6.4,0,11.5,5.1,11.5,11.5l0,0c0,6.4-5.1,11.5-11.5,11.5h-54&#10;&#9;&#9;&#9;&#9;&#9;c-6.4,0-11.5-5.1-11.5-11.5l0,0C222,247.1,227.1,242,233.5,242z"/>
				<path id="el_HJ0lLUzHrhX" d="M233.5,278h54c6.4,0,11.5,5.1,11.5,11.5l0,0c0,6.4-5.1,11.5-11.5,11.5h-54&#10;&#9;&#9;&#9;&#9;&#9;c-6.4,0-11.5-5.1-11.5-11.5l0,0C222,283.1,227.1,278,233.5,278z"/>
			</g>
		</g>
	</g>
</g>
</svg>