<svg id="Layer_1" data-name="Layer 1" xmlns="http://www.w3.org/2000/svg" xmlns:xlink="http://www.w3.org/1999/xlink" viewBox="0 0 602 624"><defs><style>.cls-1{fill:none;}.cls-2{fill:#fff;}.cls-3{clip-path:url(#clip-path);}.cls-4{fill:#707070;}.cls-5{fill:#100b0b;}.cls-6{fill:#050202;}</style><clipPath id="clip-path"><polygon class="cls-1" points="48.01 109.8 243.78 104.94 247.57 553.48 51.8 558.33 48.01 109.8"/></clipPath></defs><title>Artboard 1</title><g id="Group_1" data-name="Group 1"><g id="Circle"><ellipse id="Ellipse_1" data-name="Ellipse 1" cx="301" cy="312" rx="301" ry="312"/><ellipse id="Ellipse_2" data-name="Ellipse 2" class="cls-2" cx="300" cy="312.5" rx="251" ry="260.5"/></g><g id="Speaker"><g class="cls-3"><g id="Speaker-2"><g id="Path_1" data-name="Path 1"><path d="M415.6,297.58,242,452.37,68.86,298.24,242.45,143.46Z"/><path class="cls-4" d="M69.61,298.24,242,451.7,414.85,297.58,242.45,144.13,69.61,298.24m-1.5,0L242.45,142.79l173.9,154.79L242,453Z"/></g></g></g><rect id="Rectangle_3" data-name="Rectangle 3" x="59.19" y="236.77" width="137" height="140"/></g><g id="curved_line" data-name="curved line"><path id="Path_5" data-name="Path 5" class="cls-5" d="M355.52,220.32C397.41,188.38,454.82,199,483.77,244s18.45,107.38-23.44,139.33S361,404.65,332.09,359.65,313.64,252.27,355.52,220.32Z"/><path id="Path_6" data-name="Path 6" class="cls-2" d="M343.73,226.07c40.18-30.65,94.66-21.43,121.68,20.58s16.35,100.92-23.83,131.56-94.67,21.43-121.69-20.58S303.54,256.71,343.73,226.07Z"/></g><g id="curved_line2" data-name="curved line2"><path id="Path_3" data-name="Path 3" class="cls-5" d="M338.83,238.66c27.6-21,65.44-14.07,84.51,15.59S435.5,325,407.9,346.07s-65.44,14.07-84.52-15.59S311.22,259.71,338.83,238.66Z"/><path id="Path_4" data-name="Path 4" class="cls-2" d="M324.47,242.07c26.33-20.08,62-14,79.74,13.49s10.72,66.13-15.62,86.22-62,14-79.74-13.49S298.14,262.15,324.47,242.07Z"/></g><g id="curved_line3" data-name="curved line3"><path id="Path_3-2" data-name="Path 3-2" class="cls-5" d="M319.7,250.67c18.56-13.68,44-8,56.86,12.75s8.21,48.59-10.34,62.26-44,8-56.85-12.75S301.15,264.34,319.7,250.67Z"/><path id="Path_4-2" data-name="Path 4-2" class="cls-2" d="M310.05,252.63c17.7-13,41.71-8,53.64,11.2s7.24,45.4-10.46,58.44-41.71,8-53.64-11.2S292.35,265.68,310.05,252.63Z"/></g><rect id="Line" class="cls-6" x="10.19" y="285.77" width="579" height="63" transform="translate(-135.32 282.02) rotate(-42)"/></g></svg>